<svg width="600" height="876" viewBox="0 0 600 876" fill="none" xmlns="http://www.w3.org/2000/svg">
<rect width="600" height="190" fill="#141414" fill-opacity="0.25"/>
<path d="M115.641 118.5H108.891V67.3125H115.641V118.5ZM133.148 80.4609L133.359 85.2422C136.266 81.5859 140.062 79.7578 144.75 79.7578C152.789 79.7578 156.844 84.293 156.914 93.3633V118.5H150.41V93.3281C150.387 90.5859 149.754 88.5586 148.512 87.2461C147.293 85.9336 145.383 85.2773 142.781 85.2773C140.672 85.2773 138.82 85.8398 137.227 86.9648C135.633 88.0898 134.391 89.5664 133.5 91.3945V118.5H126.996V80.4609H133.148ZM188.871 108.41C188.871 106.652 188.203 105.293 186.867 104.332C185.555 103.348 183.246 102.504 179.941 101.801C176.66 101.098 174.047 100.254 172.102 99.2695C170.18 98.2852 168.75 97.1133 167.812 95.7539C166.898 94.3945 166.441 92.7773 166.441 90.9023C166.441 87.7852 167.754 85.1484 170.379 82.9922C173.027 80.8359 176.402 79.7578 180.504 79.7578C184.816 79.7578 188.309 80.8711 190.98 83.0977C193.676 85.3242 195.023 88.1719 195.023 91.6406H188.484C188.484 89.8594 187.723 88.3242 186.199 87.0352C184.699 85.7461 182.801 85.1016 180.504 85.1016C178.137 85.1016 176.285 85.6172 174.949 86.6484C173.613 87.6797 172.945 89.0273 172.945 90.6914C172.945 92.2617 173.566 93.4453 174.809 94.2422C176.051 95.0391 178.289 95.8008 181.523 96.5273C184.781 97.2539 187.418 98.1211 189.434 99.1289C191.449 100.137 192.938 101.355 193.898 102.785C194.883 104.191 195.375 105.914 195.375 107.953C195.375 111.352 194.016 114.082 191.297 116.145C188.578 118.184 185.051 119.203 180.715 119.203C177.668 119.203 174.973 118.664 172.629 117.586C170.285 116.508 168.445 115.008 167.109 113.086C165.797 111.141 165.141 109.043 165.141 106.793H171.645C171.762 108.973 172.629 110.707 174.246 111.996C175.887 113.262 178.043 113.895 180.715 113.895C183.176 113.895 185.145 113.402 186.621 112.418C188.121 111.41 188.871 110.074 188.871 108.41ZM235.98 99.9023C235.98 105.691 234.656 110.355 232.008 113.895C229.359 117.434 225.773 119.203 221.25 119.203C216.633 119.203 213 117.738 210.352 114.809V133.125H203.848V80.4609H209.789L210.105 84.6797C212.754 81.3984 216.434 79.7578 221.145 79.7578C225.715 79.7578 229.324 81.4805 231.973 84.9258C234.645 88.3711 235.98 93.1641 235.98 99.3047V99.9023ZM229.477 99.1641C229.477 94.875 228.562 91.4883 226.734 89.0039C224.906 86.5195 222.398 85.2773 219.211 85.2773C215.273 85.2773 212.32 87.0234 210.352 90.5156V108.691C212.297 112.16 215.273 113.895 219.281 113.895C222.398 113.895 224.871 112.664 226.699 110.203C228.551 107.719 229.477 104.039 229.477 99.1641ZM251.344 118.5H244.84V80.4609H251.344V118.5ZM244.312 70.3711C244.312 69.3164 244.629 68.4258 245.262 67.6992C245.918 66.9727 246.879 66.6094 248.145 66.6094C249.41 66.6094 250.371 66.9727 251.027 67.6992C251.684 68.4258 252.012 69.3164 252.012 70.3711C252.012 71.4258 251.684 72.3047 251.027 73.0078C250.371 73.7109 249.41 74.0625 248.145 74.0625C246.879 74.0625 245.918 73.7109 245.262 73.0078C244.629 72.3047 244.312 71.4258 244.312 70.3711ZM280.172 86.2969C279.188 86.1328 278.121 86.0508 276.973 86.0508C272.707 86.0508 269.812 87.8672 268.289 91.5V118.5H261.785V80.4609H268.113L268.219 84.8555C270.352 81.457 273.375 79.7578 277.289 79.7578C278.555 79.7578 279.516 79.9219 280.172 80.25V86.2969ZM308.262 118.5C307.887 117.75 307.582 116.414 307.348 114.492C304.324 117.633 300.715 119.203 296.52 119.203C292.77 119.203 289.688 118.148 287.273 116.039C284.883 113.906 283.688 111.211 283.688 107.953C283.688 103.992 285.188 100.922 288.188 98.7422C291.211 96.5391 295.453 95.4375 300.914 95.4375H307.242V92.4492C307.242 90.1758 306.562 88.3711 305.203 87.0352C303.844 85.6758 301.84 84.9961 299.191 84.9961C296.871 84.9961 294.926 85.582 293.355 86.7539C291.785 87.9258 291 89.3438 291 91.0078H284.461C284.461 89.1094 285.129 87.2812 286.465 85.5234C287.824 83.7422 289.652 82.3359 291.949 81.3047C294.27 80.2734 296.812 79.7578 299.578 79.7578C303.961 79.7578 307.395 80.8594 309.879 83.0625C312.363 85.2422 313.652 88.2539 313.746 92.0977V109.605C313.746 113.098 314.191 115.875 315.082 117.938V118.5H308.262ZM297.469 113.543C299.508 113.543 301.441 113.016 303.27 111.961C305.098 110.906 306.422 109.535 307.242 107.848V100.043H302.145C294.176 100.043 290.191 102.375 290.191 107.039C290.191 109.078 290.871 110.672 292.23 111.82C293.59 112.969 295.336 113.543 297.469 113.543ZM332.766 71.25V80.4609H339.867V85.4883H332.766V109.078C332.766 110.602 333.082 111.75 333.715 112.523C334.348 113.273 335.426 113.648 336.949 113.648C337.699 113.648 338.73 113.508 340.043 113.227V118.5C338.332 118.969 336.668 119.203 335.051 119.203C332.145 119.203 329.953 118.324 328.477 116.566C327 114.809 326.262 112.312 326.262 109.078V85.4883H319.336V80.4609H326.262V71.25H332.766ZM354.562 118.5H348.059V80.4609H354.562V118.5ZM347.531 70.3711C347.531 69.3164 347.848 68.4258 348.48 67.6992C349.137 66.9727 350.098 66.6094 351.363 66.6094C352.629 66.6094 353.59 66.9727 354.246 67.6992C354.902 68.4258 355.23 69.3164 355.23 70.3711C355.23 71.4258 354.902 72.3047 354.246 73.0078C353.59 73.7109 352.629 74.0625 351.363 74.0625C350.098 74.0625 349.137 73.7109 348.48 73.0078C347.848 72.3047 347.531 71.4258 347.531 70.3711ZM363.281 99.1289C363.281 95.4023 364.008 92.0508 365.461 89.0742C366.938 86.0977 368.977 83.8008 371.578 82.1836C374.203 80.5664 377.191 79.7578 380.543 79.7578C385.723 79.7578 389.906 81.5508 393.094 85.1367C396.305 88.7227 397.91 93.4922 397.91 99.4453V99.9023C397.91 103.605 397.195 106.934 395.766 109.887C394.359 112.816 392.332 115.102 389.684 116.742C387.059 118.383 384.035 119.203 380.613 119.203C375.457 119.203 371.273 117.41 368.062 113.824C364.875 110.238 363.281 105.492 363.281 99.5859V99.1289ZM369.82 99.9023C369.82 104.121 370.793 107.508 372.738 110.062C374.707 112.617 377.332 113.895 380.613 113.895C383.918 113.895 386.543 112.605 388.488 110.027C390.434 107.426 391.406 103.793 391.406 99.1289C391.406 94.957 390.41 91.582 388.418 89.0039C386.449 86.4023 383.824 85.1016 380.543 85.1016C377.332 85.1016 374.742 86.3789 372.773 88.9336C370.805 91.4883 369.82 95.1445 369.82 99.9023ZM412.219 80.4609L412.43 85.2422C415.336 81.5859 419.133 79.7578 423.82 79.7578C431.859 79.7578 435.914 84.293 435.984 93.3633V118.5H429.48V93.3281C429.457 90.5859 428.824 88.5586 427.582 87.2461C426.363 85.9336 424.453 85.2773 421.852 85.2773C419.742 85.2773 417.891 85.8398 416.297 86.9648C414.703 88.0898 413.461 89.5664 412.57 91.3945V118.5H406.066V80.4609H412.219ZM469.277 118.5C468.902 117.75 468.598 116.414 468.363 114.492C465.34 117.633 461.73 119.203 457.535 119.203C453.785 119.203 450.703 118.148 448.289 116.039C445.898 113.906 444.703 111.211 444.703 107.953C444.703 103.992 446.203 100.922 449.203 98.7422C452.227 96.5391 456.469 95.4375 461.93 95.4375H468.258V92.4492C468.258 90.1758 467.578 88.3711 466.219 87.0352C464.859 85.6758 462.855 84.9961 460.207 84.9961C457.887 84.9961 455.941 85.582 454.371 86.7539C452.801 87.9258 452.016 89.3438 452.016 91.0078H445.477C445.477 89.1094 446.145 87.2812 447.48 85.5234C448.84 83.7422 450.668 82.3359 452.965 81.3047C455.285 80.2734 457.828 79.7578 460.594 79.7578C464.977 79.7578 468.41 80.8594 470.895 83.0625C473.379 85.2422 474.668 88.2539 474.762 92.0977V109.605C474.762 113.098 475.207 115.875 476.098 117.938V118.5H469.277ZM458.484 113.543C460.523 113.543 462.457 113.016 464.285 111.961C466.113 110.906 467.438 109.535 468.258 107.848V100.043H463.16C455.191 100.043 451.207 102.375 451.207 107.039C451.207 109.078 451.887 110.672 453.246 111.82C454.605 112.969 456.352 113.543 458.484 113.543ZM492.023 118.5H485.52V64.5H492.023V118.5Z" fill="white"/>
<rect y="230" width="600" height="190" fill="#141414" fill-opacity="0.5"/>
<path d="M185.223 348.5H178.473V297.312H185.223V348.5ZM202.73 310.461L202.941 315.242C205.848 311.586 209.645 309.758 214.332 309.758C222.371 309.758 226.426 314.293 226.496 323.363V348.5H219.992V323.328C219.969 320.586 219.336 318.559 218.094 317.246C216.875 315.934 214.965 315.277 212.363 315.277C210.254 315.277 208.402 315.84 206.809 316.965C205.215 318.09 203.973 319.566 203.082 321.395V348.5H196.578V310.461H202.73ZM258.453 338.41C258.453 336.652 257.785 335.293 256.449 334.332C255.137 333.348 252.828 332.504 249.523 331.801C246.242 331.098 243.629 330.254 241.684 329.27C239.762 328.285 238.332 327.113 237.395 325.754C236.48 324.395 236.023 322.777 236.023 320.902C236.023 317.785 237.336 315.148 239.961 312.992C242.609 310.836 245.984 309.758 250.086 309.758C254.398 309.758 257.891 310.871 260.562 313.098C263.258 315.324 264.605 318.172 264.605 321.641H258.066C258.066 319.859 257.305 318.324 255.781 317.035C254.281 315.746 252.383 315.102 250.086 315.102C247.719 315.102 245.867 315.617 244.531 316.648C243.195 317.68 242.527 319.027 242.527 320.691C242.527 322.262 243.148 323.445 244.391 324.242C245.633 325.039 247.871 325.801 251.105 326.527C254.363 327.254 257 328.121 259.016 329.129C261.031 330.137 262.52 331.355 263.48 332.785C264.465 334.191 264.957 335.914 264.957 337.953C264.957 341.352 263.598 344.082 260.879 346.145C258.16 348.184 254.633 349.203 250.297 349.203C247.25 349.203 244.555 348.664 242.211 347.586C239.867 346.508 238.027 345.008 236.691 343.086C235.379 341.141 234.723 339.043 234.723 336.793H241.227C241.344 338.973 242.211 340.707 243.828 341.996C245.469 343.262 247.625 343.895 250.297 343.895C252.758 343.895 254.727 343.402 256.203 342.418C257.703 341.41 258.453 340.074 258.453 338.41ZM305.562 329.902C305.562 335.691 304.238 340.355 301.59 343.895C298.941 347.434 295.355 349.203 290.832 349.203C286.215 349.203 282.582 347.738 279.934 344.809V363.125H273.43V310.461H279.371L279.688 314.68C282.336 311.398 286.016 309.758 290.727 309.758C295.297 309.758 298.906 311.48 301.555 314.926C304.227 318.371 305.562 323.164 305.562 329.305V329.902ZM299.059 329.164C299.059 324.875 298.145 321.488 296.316 319.004C294.488 316.52 291.98 315.277 288.793 315.277C284.855 315.277 281.902 317.023 279.934 320.516V338.691C281.879 342.16 284.855 343.895 288.863 343.895C291.98 343.895 294.453 342.664 296.281 340.203C298.133 337.719 299.059 334.039 299.059 329.164ZM320.926 348.5H314.422V310.461H320.926V348.5ZM313.895 300.371C313.895 299.316 314.211 298.426 314.844 297.699C315.5 296.973 316.461 296.609 317.727 296.609C318.992 296.609 319.953 296.973 320.609 297.699C321.266 298.426 321.594 299.316 321.594 300.371C321.594 301.426 321.266 302.305 320.609 303.008C319.953 303.711 318.992 304.062 317.727 304.062C316.461 304.062 315.5 303.711 314.844 303.008C314.211 302.305 313.895 301.426 313.895 300.371ZM349.754 316.297C348.77 316.133 347.703 316.051 346.555 316.051C342.289 316.051 339.395 317.867 337.871 321.5V348.5H331.367V310.461H337.695L337.801 314.855C339.934 311.457 342.957 309.758 346.871 309.758C348.137 309.758 349.098 309.922 349.754 310.25V316.297ZM370.848 349.203C365.691 349.203 361.496 347.516 358.262 344.141C355.027 340.742 353.41 336.207 353.41 330.535V329.34C353.41 325.566 354.125 322.203 355.555 319.25C357.008 316.273 359.023 313.953 361.602 312.289C364.203 310.602 367.016 309.758 370.039 309.758C374.984 309.758 378.828 311.387 381.57 314.645C384.312 317.902 385.684 322.566 385.684 328.637V331.344H359.914C360.008 335.094 361.098 338.129 363.184 340.449C365.293 342.746 367.965 343.895 371.199 343.895C373.496 343.895 375.441 343.426 377.035 342.488C378.629 341.551 380.023 340.309 381.219 338.762L385.191 341.855C382.004 346.754 377.223 349.203 370.848 349.203ZM370.039 315.102C367.414 315.102 365.211 316.062 363.43 317.984C361.648 319.883 360.547 322.555 360.125 326H379.18V325.508C378.992 322.203 378.102 319.648 376.508 317.844C374.914 316.016 372.758 315.102 370.039 315.102ZM391.66 329.164C391.66 323.328 393.043 318.641 395.809 315.102C398.574 311.539 402.195 309.758 406.672 309.758C411.125 309.758 414.652 311.281 417.254 314.328V294.5H423.758V348.5H417.781L417.465 344.422C414.863 347.609 411.242 349.203 406.602 349.203C402.195 349.203 398.598 347.398 395.809 343.789C393.043 340.18 391.66 335.469 391.66 329.656V329.164ZM398.164 329.902C398.164 334.215 399.055 337.59 400.836 340.027C402.617 342.465 405.078 343.684 408.219 343.684C412.344 343.684 415.355 341.832 417.254 338.129V320.656C415.309 317.07 412.32 315.277 408.289 315.277C405.102 315.277 402.617 316.508 400.836 318.969C399.055 321.43 398.164 325.074 398.164 329.902Z" fill="white"/>
<rect y="460" width="600" height="190" fill="#141414" fill-opacity="0.75"/>
<path d="M201.711 562.258C201.078 567.672 199.074 571.855 195.699 574.809C192.348 577.738 187.883 579.203 182.305 579.203C176.258 579.203 171.406 577.035 167.75 572.699C164.117 568.363 162.301 562.562 162.301 555.297V550.375C162.301 545.617 163.145 541.434 164.832 537.824C166.543 534.215 168.957 531.449 172.074 529.527C175.191 527.582 178.801 526.609 182.902 526.609C188.34 526.609 192.699 528.133 195.98 531.18C199.262 534.203 201.172 538.398 201.711 543.766H194.926C194.34 539.688 193.062 536.734 191.094 534.906C189.148 533.078 186.418 532.164 182.902 532.164C178.59 532.164 175.203 533.758 172.742 536.945C170.305 540.133 169.086 544.668 169.086 550.551V555.508C169.086 561.062 170.246 565.48 172.566 568.762C174.887 572.043 178.133 573.684 182.305 573.684C186.055 573.684 188.926 572.84 190.918 571.152C192.934 569.441 194.27 566.477 194.926 562.258H201.711ZM233.422 578.5C233.047 577.75 232.742 576.414 232.508 574.492C229.484 577.633 225.875 579.203 221.68 579.203C217.93 579.203 214.848 578.148 212.434 576.039C210.043 573.906 208.848 571.211 208.848 567.953C208.848 563.992 210.348 560.922 213.348 558.742C216.371 556.539 220.613 555.438 226.074 555.438H232.402V552.449C232.402 550.176 231.723 548.371 230.363 547.035C229.004 545.676 227 544.996 224.352 544.996C222.031 544.996 220.086 545.582 218.516 546.754C216.945 547.926 216.16 549.344 216.16 551.008H209.621C209.621 549.109 210.289 547.281 211.625 545.523C212.984 543.742 214.812 542.336 217.109 541.305C219.43 540.273 221.973 539.758 224.738 539.758C229.121 539.758 232.555 540.859 235.039 543.062C237.523 545.242 238.812 548.254 238.906 552.098V569.605C238.906 573.098 239.352 575.875 240.242 577.938V578.5H233.422ZM222.629 573.543C224.668 573.543 226.602 573.016 228.43 571.961C230.258 570.906 231.582 569.535 232.402 567.848V560.043H227.305C219.336 560.043 215.352 562.375 215.352 567.039C215.352 569.078 216.031 570.672 217.391 571.82C218.75 572.969 220.496 573.543 222.629 573.543ZM272.586 574.738C270.055 577.715 266.34 579.203 261.441 579.203C257.387 579.203 254.293 578.031 252.16 575.688C250.051 573.32 248.984 569.828 248.961 565.211V540.461H255.465V565.035C255.465 570.801 257.809 573.684 262.496 573.684C267.465 573.684 270.77 571.832 272.41 568.129V540.461H278.914V578.5H272.727L272.586 574.738ZM297.652 531.25V540.461H304.754V545.488H297.652V569.078C297.652 570.602 297.969 571.75 298.602 572.523C299.234 573.273 300.312 573.648 301.836 573.648C302.586 573.648 303.617 573.508 304.93 573.227V578.5C303.219 578.969 301.555 579.203 299.938 579.203C297.031 579.203 294.84 578.324 293.363 576.566C291.887 574.809 291.148 572.312 291.148 569.078V545.488H284.223V540.461H291.148V531.25H297.652ZM319.449 578.5H312.945V540.461H319.449V578.5ZM312.418 530.371C312.418 529.316 312.734 528.426 313.367 527.699C314.023 526.973 314.984 526.609 316.25 526.609C317.516 526.609 318.477 526.973 319.133 527.699C319.789 528.426 320.117 529.316 320.117 530.371C320.117 531.426 319.789 532.305 319.133 533.008C318.477 533.711 317.516 534.062 316.25 534.062C314.984 534.062 314.023 533.711 313.367 533.008C312.734 532.305 312.418 531.426 312.418 530.371ZM328.168 559.129C328.168 555.402 328.895 552.051 330.348 549.074C331.824 546.098 333.863 543.801 336.465 542.184C339.09 540.566 342.078 539.758 345.43 539.758C350.609 539.758 354.793 541.551 357.98 545.137C361.191 548.723 362.797 553.492 362.797 559.445V559.902C362.797 563.605 362.082 566.934 360.652 569.887C359.246 572.816 357.219 575.102 354.57 576.742C351.945 578.383 348.922 579.203 345.5 579.203C340.344 579.203 336.16 577.41 332.949 573.824C329.762 570.238 328.168 565.492 328.168 559.586V559.129ZM334.707 559.902C334.707 564.121 335.68 567.508 337.625 570.062C339.594 572.617 342.219 573.895 345.5 573.895C348.805 573.895 351.43 572.605 353.375 570.027C355.32 567.426 356.293 563.793 356.293 559.129C356.293 554.957 355.297 551.582 353.305 549.004C351.336 546.402 348.711 545.102 345.43 545.102C342.219 545.102 339.629 546.379 337.66 548.934C335.691 551.488 334.707 555.145 334.707 559.902ZM394.438 574.738C391.906 577.715 388.191 579.203 383.293 579.203C379.238 579.203 376.145 578.031 374.012 575.688C371.902 573.32 370.836 569.828 370.812 565.211V540.461H377.316V565.035C377.316 570.801 379.66 573.684 384.348 573.684C389.316 573.684 392.621 571.832 394.262 568.129V540.461H400.766V578.5H394.578L394.438 574.738ZM432.828 568.41C432.828 566.652 432.16 565.293 430.824 564.332C429.512 563.348 427.203 562.504 423.898 561.801C420.617 561.098 418.004 560.254 416.059 559.27C414.137 558.285 412.707 557.113 411.77 555.754C410.855 554.395 410.398 552.777 410.398 550.902C410.398 547.785 411.711 545.148 414.336 542.992C416.984 540.836 420.359 539.758 424.461 539.758C428.773 539.758 432.266 540.871 434.938 543.098C437.633 545.324 438.98 548.172 438.98 551.641H432.441C432.441 549.859 431.68 548.324 430.156 547.035C428.656 545.746 426.758 545.102 424.461 545.102C422.094 545.102 420.242 545.617 418.906 546.648C417.57 547.68 416.902 549.027 416.902 550.691C416.902 552.262 417.523 553.445 418.766 554.242C420.008 555.039 422.246 555.801 425.48 556.527C428.738 557.254 431.375 558.121 433.391 559.129C435.406 560.137 436.895 561.355 437.855 562.785C438.84 564.191 439.332 565.914 439.332 567.953C439.332 571.352 437.973 574.082 435.254 576.145C432.535 578.184 429.008 579.203 424.672 579.203C421.625 579.203 418.93 578.664 416.586 577.586C414.242 576.508 412.402 575.008 411.066 573.086C409.754 571.141 409.098 569.043 409.098 566.793H415.602C415.719 568.973 416.586 570.707 418.203 571.996C419.844 573.262 422 573.895 424.672 573.895C427.133 573.895 429.102 573.402 430.578 572.418C432.078 571.41 432.828 570.074 432.828 568.41Z" fill="white"/>
<path fill-rule="evenodd" clip-rule="evenodd" d="M321.028 775.205C313.969 778.634 307.907 783.863 303.466 790.392C298.36 797.9 295.635 806.777 295.65 815.862C295.665 824.947 298.417 833.816 303.548 841.307C308.679 848.799 315.948 854.563 324.404 857.847C332.86 861.13 342.108 861.779 350.939 859.709C359.486 857.705 367.257 853.243 373.299 846.881C373.625 846.538 374.17 846.528 374.501 846.866L383.765 856.337C384.071 856.65 384.08 857.149 383.781 857.468C375.707 866.089 365.908 871.712 354.375 874.416C342.587 877.179 330.242 876.313 318.954 871.93C307.667 867.547 297.964 859.852 291.115 849.852C286.266 842.772 283.008 834.77 281.512 826.397C270.42 827.698 259.175 825.752 249.144 820.775C238.575 815.532 229.861 807.175 224.171 796.826C218.481 786.477 216.088 774.632 217.313 762.881C218.538 751.13 223.322 740.036 231.024 731.088C238.726 722.14 248.976 715.767 260.398 712.825C271.821 709.882 283.869 710.51 294.924 714.626C305.979 718.741 315.513 726.146 322.246 735.847C326.557 742.06 329.587 749.023 331.209 756.331C338.808 755.116 346.61 755.369 354.186 757.119C365.724 759.785 375.666 765.508 383.772 774.105C384.075 774.427 384.065 774.931 383.753 775.244L374.401 784.62C374.07 784.951 373.53 784.94 373.207 784.601C367.143 778.254 359.355 773.814 350.797 771.837C344.789 770.449 338.592 770.318 332.586 771.417V826.789H321.028V775.205ZM332.586 768.895C332.586 765.427 332.275 761.983 331.666 758.603C338.364 757.544 345.232 757.668 351.952 759.007C362.894 761.187 372.965 766.492 380.957 774.272C381.283 774.59 381.283 775.113 380.961 775.435L374.573 781.834C374.252 782.156 373.731 782.156 373.404 781.839C366.907 775.554 358.738 771.268 349.869 769.501C344.141 768.36 338.282 768.301 332.586 769.295V768.895ZM321.028 768.895C321.028 766.427 320.831 763.974 320.444 761.559C319.813 761.795 319.185 762.043 318.561 762.302C308.001 766.684 298.975 774.104 292.624 783.625C286.274 793.146 282.884 804.339 282.884 815.789C282.884 827.24 286.274 838.433 292.624 847.954C298.975 857.475 308.001 864.895 318.561 869.277C329.121 873.659 340.741 874.806 351.952 872.572C362.894 870.392 372.965 865.087 380.957 857.306C381.283 856.989 381.283 856.466 380.961 856.144L374.573 849.745C374.252 849.423 373.731 849.423 373.404 849.74C366.907 856.025 358.738 860.311 349.869 862.078C340.73 863.899 331.257 862.964 322.648 859.392C314.039 855.82 306.682 849.771 301.505 842.01C296.328 834.249 293.565 825.124 293.565 815.789C293.565 806.455 296.328 797.33 301.505 789.569C306.354 782.3 313.116 776.532 321.028 772.895V768.895ZM312.755 742.457C316.284 747.541 318.74 753.255 320.014 759.249C319.599 759.401 319.186 759.558 318.774 759.719C307.5 764.139 297.822 771.865 291.006 781.887C284.384 791.623 280.764 803.083 280.58 814.846C271.573 815.985 262.423 814.442 254.274 810.399C245.819 806.204 238.847 799.519 234.295 791.24C229.743 782.961 227.829 773.484 228.809 764.084C229.789 754.683 233.617 745.808 239.778 738.65C245.939 731.491 254.14 726.393 263.277 724.039C272.415 721.684 282.053 722.187 290.898 725.48C299.742 728.772 307.369 734.696 312.755 742.457Z" fill="#141414"/>
</svg>
