<svg id="illustration-builder" width="1000" height="350" viewBox="-10 470 1070 350" version="1.1" xmlns="http://www.w3.org/2000/svg" xmlns:xlink="http://www.w3.org/1999/xlink" style="pointer-events: inherit;"><g transform="translate(0,0)">
<g><svg xmlns="http://www.w3.org/2000/svg" width="1000" height="880" viewBox="0 0 1000 880"><g id="Symbols--globalStyle1/socialnetwork/bg2" fill="none" fill-rule="evenodd" stroke="none" stroke-width="1"><g id="globalStyle1/socialnetwork/bg2--globalStyle1/socialnetwork/bg2" fill="#DBF2FF"><path id="[color:background]background--globalStyle1/socialnetwork/bg2" d="M0,782.46217 L1000,782.46217 C951.319877,699.415897 901.267069,663.608752 849.841578,675.040736 C772.703342,692.188712 765.146861,736.8604 728.369444,736.8604 C691.592027,736.8604 660.809484,610.092665 580.404742,615.89232 C500,621.691975 492.334118,708.776444 439.025597,722.818422 C385.717076,736.8604 324.523622,615.89232 263.016446,615.89232 C201.509271,615.89232 221.597896,708.776444 170.809781,722.818422 C120.021666,736.8604 106.822271,680.235327 62.3195843,692.529341 C32.6511267,700.725351 11.8779319,730.702961 0,782.46217 Z" fill="#dbf2ff" opacity="1.00"></path></g></g></svg></g></g><!----><g transform="translate(112,383)">
<g transform="translate(53,90)">

<g><svg xmlns="http://www.w3.org/2000/svg" width="120" height="150" viewBox="0 0 120 150"><g id="Symbols--globalStyle1/people/womansitting/head/2" fill="none" fill-rule="evenodd" stroke="none" stroke-width="1"><g id="globalStyle1/people/womansitting/head/2--globalStyle1/people/womansitting/head/2"><path id="[hair]hair--globalStyle1/people/womansitting/head/2" fill="#233a48" d="M94.0540717,79.6463918 C87.1176963,124.672304 67.5098558,145.292691 55.2034762,131.518032 C54.8966675,131.174617 43.1261951,108.246693 52.3489613,64.5646643 C57.6947611,39.2452125 62.6664326,28.7346159 79.0682835,28.7346159 C96.0633366,28.7346159 96.0633366,66.6037025 94.0540717,79.6463918 Z" opacity="1.00"></path><path id="shadow--globalStyle1/people/womansitting/head/2" fill="#000" fill-opacity=".2" d="M94.0540717,79.6463918 C87.1176963,124.672304 67.5098558,145.292691 55.2034762,131.518032 C54.8966675,131.174617 43.1261951,108.246693 52.3489613,64.5646643 C57.6947611,39.2452125 62.6664326,28.7346159 79.0682835,28.7346159 C96.0633366,28.7346159 96.0633366,66.6037025 94.0540717,79.6463918 Z"></path><g id="Group--globalStyle1/people/womansitting/head/2" transform="translate(35.216 19.964)"><polygon id="[skin]skin--globalStyle1/people/womansitting/head/2" fill="#9a6059" points="5.57059381 71.1663914 39.598495 20.4386873 48.9854646 31.9638476 31.3316378 76.6420703" transform="rotate(-12 27.278 48.54)" opacity="1.00"></polygon><polygon id="shadow--globalStyle1/people/womansitting/head/2" fill="#000" fill-opacity=".04" points="5.57059381 71.1663914 39.598495 20.4386873 48.9854646 31.9638476 31.3316378 76.6420703" transform="rotate(-12 27.278 48.54)"></polygon><ellipse id="[skin]skin--globalStyle1/people/womansitting/head/2" cx="45.328" cy="19.336" fill="#9a6059" rx="10.236" ry="17.511" transform="rotate(-12 45.328 19.336)" opacity="1.00"></ellipse><path id="smile--globalStyle1/people/womansitting/head/2" fill="#FFF" fill-rule="nonzero" d="M50.6623358,30.3469927 C51.3403309,30.3466344 52.7288499,29.8862396 52.7297211,28.2396809 C52.7297211,28.2396809 48.5971791,28.2418639 48.5971791,28.2418639 C48.5963727,29.766537 49.9843407,30.3473507 50.6623358,30.3469927 Z" transform="rotate(4 50.663 29.293)"></path></g><path id="[hair]hair--globalStyle1/people/womansitting/head/2" fill="#233a48" d="M48.8269456,108.189973 C46.4339456,141.080573 14.6487474,178.25258 7.79465594,117.67372 C4.79837481,91.1915385 21.4614205,75.1463918 36.9734762,53.1463918 C45.7378733,40.7162703 49.2556389,32.463705 53.2496389,25.0608613 C59.5546389,13.3734679 69.0176389,5.8196268 88.1016389,19.4232958 C93.3146389,23.1386253 90.5826389,26.2062557 79.9056389,28.6251935 C79.5616389,30.1907976 76.4096394,30.5341987 74.5508546,36.258276 C74.2253771,36.7641865 69.3434196,50.6731706 59.9107807,64.8336977 C49.0932933,81.0731959 49.0932933,104.525519 48.8269456,108.189973 Z" opacity="1.00"></path></g></g></svg></g>
</g>
<g transform="translate(68,247)">

<g><svg xmlns="http://www.w3.org/2000/svg" xmlns:xlink="http://www.w3.org/1999/xlink" width="251" height="180" viewBox="0 0 251 180"><defs><path id="path-1--globalStyle1/people/womansitting/bottom/1" d="M78.2895299,6.93020713 C109.291352,8.82391597 135.418166,9.23901411 146.255179,9.32900162 C147.969642,8.88599261 149.767955,8.64931053 151.620648,8.64594477 C161.824455,8.62843711 170.401652,15.6931037 172.787987,25.2490247 L227.115627,133.954356 L173.447607,134.048569 L139.432102,53.8335792 C87.0118532,56.2807114 25.7923543,55.739052 21.9504013,55.4727603 C13.4659013,54.8833561 5.41046321,48.6101646 1.6832013,37.9721646 C-1.4226606,29.1127178 -0.253836791,11.9280795 5.38542511,4.65876032 C13.7549775,-6.12975032 45.5203537,4.92646245 78.2895299,6.93020713 Z"></path></defs><g id="Symbols--globalStyle1/people/womansitting/bottom/1" fill="none" fill-rule="evenodd" stroke="none" stroke-width="1"><g id="globalStyle1/people/womansitting/bottom/1--globalStyle1/people/womansitting/bottom/1"><path id="[skin]leg--globalStyle1/people/womansitting/bottom/1" fill="#9a6059" d="M180,49.4232907 L163.130618,170 C158.615281,169.340266 155,168.821245 155,168.821245 C155,168.821245 159.728477,67.5186781 160.062089,49 C160.062089,49 164.622602,49 180,49.4232907" opacity="1.00"></path><path id="shadow--globalStyle1/people/womansitting/bottom/1" fill="#000" fill-opacity=".04" d="M180,49.4232907 L163.130618,170 C158.615281,169.340266 155,168.821245 155,168.821245 C155,168.821245 159.728477,67.5186781 160.062089,49 C160.062089,49 164.622602,49 180,49.4232907"></path><path id="Fill-5--globalStyle1/people/womansitting/bottom/1" fill="#E9E9E9" d="M154,159 L154.524999,177 L185,176.979391 C184.910033,175.102792 184.731237,174.040265 181.105213,173.968132 C175.665038,173.86165 163.185776,174.816551 163.182359,169.595509 C163.182359,168.481458 162.923846,171.156097 165.764079,159 L154,159 Z"></path><path id="Fill-5-Copy--globalStyle1/people/womansitting/bottom/1" fill="#000" fill-opacity=".04" d="M154,159 L154.524999,177 L185,176.979391 C184.910033,175.102792 184.731237,174.040265 181.105213,173.968132 C175.665038,173.86165 163.185776,174.816551 163.182359,169.595509 C163.182359,168.481458 162.923846,171.156097 165.764079,159 L154,159 Z"></path><path id="[skin]leg--globalStyle1/people/womansitting/bottom/1" fill="#9a6059" d="M171.451833,45 L219,167.158568 C215.277335,168.822967 212.688991,170 212.688991,170 C212.688991,170 157.514595,74.4511163 152,55.8829588 C152,55.8829588 156.036679,54.1289035 171.451833,45" opacity="1.00"></path><path id="Fill-9--globalStyle1/people/womansitting/bottom/1" fill="#E9E9E9" d="M205,160 L215.641689,177 L246,176.980497 C245.911508,175.100148 245.733391,174.03435 242.119981,173.96322 C236.700434,173.856526 225.750159,173.576596 222.095907,169.872115 C219.82916,167.574167 219.586375,166.845661 217.620272,160.009178 L205,160 Z"></path><path id="[clothes]shoes--globalStyle1/people/womansitting/bottom/1" fill="#294b67" d="M215.703826,179 L246,179 L246,177.007052 C246,177.007052 235.540863,176.991185 215.703826,177.007052 L215.703826,179 Z" opacity="1.00"></path><path id="[clothes]pants--globalStyle1/people/womansitting/bottom/1" fill="#294b67" d="M168.133674,25.9436817 C180.189397,25.9226737 189.978266,35.7447608 189.999964,47.8846124 C190.001314,48.6424241 189.964553,49.3913457 189.891501,50.1295386 L184.822636,152.99426 L136.920339,153 L144.263984,71.1318062 C98.7959834,73.3054989 58.4673376,74.3672287 54.985931,74.1265518 C46.4865112,73.5364919 38.4169077,67.2696881 34.6819514,56.6405736 C31.571768,47.7873788 32.7540481,37.4854375 38.4032266,30.2221902 C46.7874967,19.4415427 168.133674,25.9436817 168.133674,25.9436817 Z" opacity="1.00"></path><path id="shadow--globalStyle1/people/womansitting/bottom/1" fill="#000" fill-opacity=".04" d="M168.133674,25.9436817 C180.189397,25.9226737 189.978266,35.7447608 189.999964,47.8846124 C190.001314,48.6424241 189.964553,49.3913457 189.891501,50.1295386 L184.822636,152.99426 L136.920339,153 L144.263984,71.1318062 C98.7959834,73.3054989 58.4673376,74.3672287 54.985931,74.1265518 C46.4865112,73.5364919 38.4169077,67.2696881 34.6819514,56.6405736 C31.571768,47.7873788 32.7540481,37.4854375 38.4032266,30.2221902 C46.7874967,19.4415427 168.133674,25.9436817 168.133674,25.9436817 Z"></path><g id="Stroke-28-+-Stroke-30-Mask--globalStyle1/people/womansitting/bottom/1" transform="translate(10 20)"><mask id="mask-2--globalStyle1/people/womansitting/bottom/1" fill="#fff"><use xlink:href="#path-1--globalStyle1/people/womansitting/bottom/1"></use></mask><use id="[clothes]pants--globalStyle1/people/womansitting/bottom/1" fill="#294b67" xlink:href="#path-1--globalStyle1/people/womansitting/bottom/1" opacity="1.00"></use><path id="Stroke-28--globalStyle1/people/womansitting/bottom/1" fill="#294b67" fill-rule="nonzero" d="M134.492799,42.5445474 L149.082884,5.96072266 C149.217912,5.62214707 149.052905,5.23821537 148.714329,5.1031872 C148.375753,4.96815904 147.991822,5.13316683 147.856793,5.47174241 L132.729149,43.4034668 L187.628787,59.482163 L155.869089,131.79219 C155.722506,132.125926 155.874225,132.5153 156.207961,132.661883 C156.541697,132.808465 156.931071,132.656746 157.077654,132.32301 L189.441443,58.6375964 L134.492799,42.5445474 Z" mask="url(#mask-2--globalStyle1/people/womansitting/bottom/1)"></path><path id="Stroke-30--globalStyle1/people/womansitting/bottom/1" fill="#294b67" fill-rule="nonzero" d="M149.559735,31.9980795 L144.419519,132.023728 C144.400812,132.387756 144.680749,132.698023 145.044777,132.717616 C145.408804,132.735437 145.719072,132.4555 145.737779,132.091472 L150.949905,30.6665134 L27.9180157,31.6861169 L8.62619187,1.76457237 C8.42867197,1.45821976 8.02020259,1.36999342 7.71384998,1.56751332 C7.40749736,1.76503322 7.31927102,2.1735026 7.51679093,2.47985521 L27.2023574,33.0120931 L149.559735,31.9980795 Z" mask="url(#mask-2--globalStyle1/people/womansitting/bottom/1)"></path></g><path id="[clothes]shoes--globalStyle1/people/womansitting/bottom/1" fill="#294b67" d="M155,179 L185,179 L185,177.011866 C174.643111,176.996045 174.644232,176.996045 155,177.011866 L155,179 Z" opacity="1.00"></path></g></g></svg></g>
</g>
<g transform="translate(67,154)">

<g><svg xmlns="http://www.w3.org/2000/svg" xmlns:xlink="http://www.w3.org/1999/xlink" width="193" height="178" viewBox="0 0 193 178"><defs><polygon id="path-1--globalStyle1/people/womansitting/top/1" points="0.9688 0.262043258 45.003 0.262043258 45.003 54.4044309 0.9688 54.4044309"></polygon></defs><g id="Symbols--globalStyle1/people/womansitting/top/1" fill="none" fill-rule="evenodd" stroke="none" stroke-width="1"><g id="globalStyle1/people/womansitting/top/1--globalStyle1/people/womansitting/top/1" transform="translate(12.256 5)"><g id="mac1--globalStyle1/people/womansitting/top/1" transform="translate(68 112.04)"><polygon id="Fill-18--globalStyle1/people/womansitting/top/1" fill="#888889" points="1.49213975e-13 16.0177882 0.003 17.8420242 47.439 20.1726534 47.439 18.4856927"></polygon><polygon id="Fill-20--globalStyle1/people/womansitting/top/1" fill="#C7C7C9" points="47.439 18.4853876 9.9475983e-14 16.0174831 36.464 4.4408921e-14 72.501 1.88016292"></polygon><polygon id="Fill-22--globalStyle1/people/womansitting/top/1" fill="#B4B4B5" points="48.2334 16.8876051 24.2284 15.7233073 51.0234 1.96832416 70.0344 2.95772303"></polygon><polyline id="Fill-24--globalStyle1/people/womansitting/top/1" fill="#939396" points="47.4361 18.4853876 47.4391 20.1723483 72.5031 3.34443258 72.5011 1.88016292"></polyline><polygon id="Fill-26--globalStyle1/people/womansitting/top/1" fill="#B4B4B5" points="29.4444 9.7001764 19.9644 9.22327191 28.5554 5.4314236 37.3794 5.87578876"></polygon></g><path id="[skin]hand--globalStyle1/people/womansitting/top/1" fill="#9a6059" d="M67.4777624 118.140449L76.1319946 123.274743 85.0072407 123.065116 90.8160423 125.72769C91.2729366 125.952961 91.1549964 126.227249 91.0737267 126.235592 89.3710273 126.405588 88.0191752 126.15633 86.2817875 125.354325 84.4760144 126.120871 82.9150414 125.283406 83.5384395 127.0741 83.6117805 127.284769 86.6722785 128.291187 89.8229661 128.508114 90.2709406 128.540445 92.4374719 128.852278 92.7070495 128.874179 94.2610848 128.996201 94.5068761 128.930497 95.604017 128.826205 95.940989 128.794917 96.3701326 128.91381 96.8944213 129.183926 96.9687534 129.222514 97.0331745 129.275703 97.0787648 129.33515 97.2036426 129.499931 97.1540879 129.676184 96.9697445 129.72833 96.5554672 129.84618 96.099564 129.954644 95.6010438 130.05685 94.8725897 130.204945 92.5831627 130.345739 90.6138591 130.24979 89.2788556 130.185129 87.6237287 130.120468 87.4324476 130.173657 87.1371016 130.257091 89.79026 130.604383 91.8923703 131.068482 93.9954716 131.534667 95.3413771 130.758735 97.2512151 130.509477 97.513855 130.475061 98.0014733 130.563709 98.7130787 130.773336 98.7507403 130.784808 99.0867211 130.978791 98.9786919 131.167559 98.8696715 131.356328 96.6942204 132.156247 95.4365222 132.431578 93.3403585 132.890463 92.8993217 132.792428 91.8884059 132.632862 90.6287255 132.43575 88.3799334 132.177106 87.7634729 132.134346 87.1470125 132.092629 90.5335805 133.106347 93.0687988 133.307631 93.4632541 133.338918 94.273969 133.294073 94.6476114 133.281558 95.7685386 133.240884 97.2214823 132.729853 97.7388334 133.021871 97.8131654 133.06463 97.8815509 133.114691 97.9400254 133.172051 98.2086119 133.432781 98.2056386 133.760258 97.9340789 133.900009 97.2294111 134.266074 96.1729049 134.549748 94.7645605 134.75416 94.432544 134.802135 93.1262822 134.950229 92.6475838 134.892869 90.6257522 134.647782 88.1410797 133.911481 87.9111459 133.987614 87.6802211 134.063747 89.1599243 134.334907 90.9488488 134.778147 91.3561884 134.879311 93.0301461 135.119182 93.3423407 135.189058 93.7546358 135.279792 94.0479996 135.277706 94.7625783 135.360097 96.1897535 135.523835 96.3076937 136.121428 95.5336494 136.379029 94.7586139 136.635587 88.4681407 136.088055 85.7029887 135.476904 84.1895882 135.142126 81.1548586 134.755203 77.4620426 133.353519L63 126.960421 67.4777624 118.140449zM100.148056 102.887647C100.624331 102.886781 101.082067 102.969511 101.508468 103.12257L101.511211 103.114402 108.533907 104.375746C112.994784 105.60574 115.421244 106.787662 117.028523 107.296588 119.963336 108.227705 126.23002 111.123466 126.842651 111.779741 127.455282 112.434971 127.050204 112.922998 125.609368 112.303298 124.886443 111.992926 124.608704 111.831993 124.17154 111.693004 123.839656 111.587457 122.127097 110.905056 121.687928 110.777563 119.76581 110.219521 118.222702 109.669838 118.405188 109.864212 118.587674 110.059632 121.31694 110.722177 123.364391 111.589547 123.84868 111.796462 125.021803 112.639796 125.314583 112.863431 126.557893 113.812313 127.426205 114.646242 127.919518 115.365219 128.109023 115.641105 127.952606 115.944162 127.568584 116.040304 127.486365 116.061205 127.396125 116.07061 127.303879 116.069565 126.668187 116.06016 125.533165 114.802996 124.48337 114.159261 124.133438 113.945031 123.381436 113.465365 122.991398 113.281441 120.4757 112.096384 116.749781 111.200798 117.358401 111.495495 117.968024 111.790192 120.23907 112.766244 121.536524 113.26472 122.577295 113.66601 123.045542 113.813358 124.820267 115.370444 125.885102 116.302605 127.568584 118.219179 127.579613 118.45222 127.58964 118.684215 127.175537 118.68108 127.133425 118.671675 126.352346 118.480435 125.844995 118.298601 125.61037 118.124082 123.911848 116.862738 123.00744 115.418515 120.775498 114.711034 118.542554 114.003552 115.84437 112.889557 116.085011 113.125732 116.241427 113.279351 117.849709 114.11328 119.155185 114.775825 121.08031 115.751878 123.193937 117.119814 123.815592 117.650686 124.241727 118.014354 124.622741 118.362347 124.960641 118.69362 125.111041 118.842013 125.071937 119.030118 124.872406 119.11581 124.800213 119.14716 124.712981 119.160746 124.621738 119.156566 123.991059 119.121035 123.522813 118.998767 123.216998 118.787672 122.22235 118.099001 122.019811 117.903582 120.478708 117.17729 120.210995 117.050842 117.992088 116.167797 117.549911 115.954612 114.43963 114.452913 111.028549 113.725576 110.857092 113.881285 109.386176 115.19697 111.285232 115.268031 112.630815 116.951565 114.679268 117.151165 116.091027 117.652776 117.631127 118.729151 117.704322 118.781402 117.682263 119.098044 117.137814 119.058333L117.137814 119.058333 110.2966 118.375933 103.27992 112.657562 98.5703812 111.316796 98.5993385 111.235218C97.0776363 110.594585 96.0030564 109.041906 96.0000065 107.226594 95.9960023 104.834534 97.852946 102.891834 100.148056 102.887647z" opacity="1.00"></path><path id="Combined-Shape--globalStyle1/people/womansitting/top/1" fill="#E8E8E8" d="M51.0403008,2.29008038 C57.3476026,1.6178496 64.2502704,5.75307742 63.9724962,13.3116174 C63.3744647,29.5425627 59.9552845,76.5399173 59.433257,79.020438 C59.4051771,79.153835 59.3768422,79.286181 59.3482558,79.4174827 C67.7974502,83.3832431 82.4535393,90.9312201 102,101.900463 L102,101.900463 L97.957787,113.05618 C68.3922771,106.516039 50.0812237,99.7420203 42.5541979,93.2252373 C41.3215726,92.4582283 40.2397083,91.3824946 39.4255027,90.0267929 C37.4474719,86.7332516 37.5899438,82.6858878 39.4689672,79.6140258 C37.9584248,60.6841798 40.4348245,23.1381946 41.1032912,12.7743242 C41.5050709,8.87123586 49.1952592,17.1868363 51.4847337,15.4758151 C52.5325177,14.6927618 52.8833109,9.37861331 52.3460105,5.75212556 C52.0476639,3.73844699 50.3281934,2.36597662 51.0403008,2.29008038 Z"></path><path id="shadow--globalStyle1/people/womansitting/top/1" fill="#000" fill-opacity=".04" d="M51.0403008,2.29008038 C57.3476026,1.6178496 64.2502704,5.75307742 63.9724962,13.3116174 C63.3744647,29.5425627 59.9552845,76.5399173 59.433257,79.020438 C59.4051771,79.153835 59.3768422,79.286181 59.3482558,79.4174827 C67.7974502,83.3832431 82.4535393,90.9312201 102,101.900463 L102,101.900463 L97.957787,113.05618 C68.3922771,106.516039 50.0812237,99.7420203 42.5541979,93.2252373 C41.3215726,92.4582283 40.2397083,91.3824946 39.4255027,90.0267929 C37.4474719,86.7332516 37.5899438,82.6858878 39.4689672,79.6140258 C37.9584248,60.6841798 40.4348245,23.1381946 41.1032912,12.7743242 C41.5050709,8.87123586 49.1952592,17.1868363 51.4847337,15.4758151 C52.5325177,14.6927618 52.8833109,9.37861331 52.3460105,5.75212556 C52.0476639,3.73844699 50.3281934,2.36597662 51.0403008,2.29008038 Z"></path><path id="[clothes]bluse--globalStyle1/people/womansitting/top/1" fill="#fea770" d="M31.3189523,0.185814923 C-5.57744702,1.82298334 0.350589887,31.62094 0.350589887,65.0059704 C0.350589887,74.0082635 -1.28625613,110.355378 2.99286957,115.713595 C18.8133683,135.521897 50.5006159,128.583902 61.1562019,117.894951 C65.2593767,113.77857 64.6752197,113.256388 64.5244047,77.0436364 C64.4389428,56.4189798 68.9261933,43.2239634 66.0184791,33.8419942 C63.920139,27.0729701 59.3324413,2.20545087 50.290681,1.12642439 C50.1299267,1.10724028 47.9505856,6.28651685 47.3729215,6.28651685 C44.5114573,5.93635982 32.5626738,0.131236269 31.3189523,0.185814923 Z" opacity="1.00"></path><path id="shadow--globalStyle1/people/womansitting/top/1" fill="#000" fill-opacity=".04" d="M101.897899,103.904494 L99,111.702931 L103.640788,112.977665 L110.555038,118.414414 L117.296382,119.063208 C117.832883,119.100963 117.85462,118.799915 117.782494,118.750237 C116.264876,117.726872 114.873727,117.249964 112.855177,117.060195 C111.529237,115.459573 109.657904,115.392011 111.107348,114.141122 C111.276301,113.993082 114.637587,114.684598 117.702463,116.112341 C118.138185,116.315026 120.324701,117.154583 120.588505,117.274803 C122.107111,117.965326 122.306693,118.151121 123.286821,118.805876 C123.588171,119.006575 124.049582,119.122821 124.671055,119.156602 C124.760966,119.160576 124.846924,119.14766 124.918063,119.117853 C125.114681,119.036382 125.153214,118.857541 125.00501,118.716456 C124.672043,118.401498 124.29659,118.070643 123.876677,117.724885 C123.264097,117.220158 121.181325,115.91959 119.284303,114.991607 C117.997885,114.361692 116.413081,113.568832 116.258948,113.422779 C116.02182,113.198235 118.680615,114.257368 120.880963,114.930007 C123.080323,115.602645 123.971528,116.975742 125.645255,118.174967 C125.876454,118.340891 126.376398,118.51377 127.146076,118.695591 C127.187573,118.704533 127.59563,118.707514 127.58575,118.486944 C127.574882,118.265381 125.915975,116.443195 124.866685,115.556942 C123.117868,114.07654 122.656457,113.936449 121.630879,113.554922 C120.352366,113.080995 118.114472,112.153012 117.513749,111.872829 C116.914013,111.592646 120.585541,112.444125 123.064514,113.570819 C123.448859,113.745686 124.189883,114.201729 124.534706,114.405408 C125.569176,115.01744 126.687629,116.21269 127.314041,116.221632 C127.40494,116.222625 127.493863,116.213683 127.574882,116.193812 C127.953298,116.102405 128.107431,115.814273 127.920693,115.551974 C127.434581,114.868406 126.578945,114.075547 125.353785,113.173396 C125.06528,112.960775 123.909282,112.158974 123.432062,111.962249 C121.4145,111.137596 118.725076,110.50768 118.545255,110.321885 C118.365433,110.137083 119.886014,110.659695 121.780072,111.190255 C122.21283,111.311469 123.90039,111.960262 124.227428,112.060611 C124.65821,112.192755 124.931895,112.345762 125.644267,112.640849 C127.064069,113.230029 127.463234,112.766037 126.859546,112.143077 C126.255858,111.519122 120.080657,108.765973 117.188686,107.880713 C115.604871,107.39685 113.213832,106.273136 108.818077,105.103719 L101.897899,103.904494 Z"></path><g id="mac2--globalStyle1/people/womansitting/top/1" transform="translate(114 75.433)"><mask id="mask-2--globalStyle1/people/womansitting/top/1" fill="#fff"><use xlink:href="#path-1--globalStyle1/people/womansitting/top/1"></use></mask><polygon id="Fill-35--globalStyle1/people/womansitting/top/1" fill="#9F9FA0" points="0.9688 54.4044309 26.0308 37.7992062 45.0038 0.262043258 19.6588 16.8032062" mask="url(#mask-2--globalStyle1/people/womansitting/top/1)"></polygon><path id="Fill-38--globalStyle1/people/womansitting/top/1" fill="#BEBEBF" d="M25.6685,28.9632539 C24.7305,30.9562876 23.6495,32.248709 22.8355,31.8531528 C22.0225,31.4565798 22.1235,29.5204899 23.0615,27.5274562 C24.0005,25.5354393 25.4205,24.2399674 26.2335,24.6365404 C27.0475,25.0331135 26.6065,26.9702202 25.6685,28.9632539" mask="url(#mask-2--globalStyle1/people/womansitting/top/1)"></path></g><path id="Combined-Shape--globalStyle1/people/womansitting/top/1" fill="#E8E8E8" d="M29.1985812,15.4362657 C32.9065009,26.2769342 36.1525995,69.5506235 36.5459764,84.9847919 C40.0730204,88.21474 45.2606117,90.8110184 71.207361,118.114423 L72,118.949387 L67.1084898,129.325843 C37.9787529,112.601079 24.76174,102.945182 20.1366331,95.7831551 C19.9659292,95.6081112 19.8124275,95.4302955 19.6781449,95.2507905 C13.5582238,87.0715948 3.7882822,27.9350169 6.4493362,15.8222297 C9.11139628,3.7094426 24.828215,2.6558925 29.1985812,15.4362657 Z"></path><path id="shadow--globalStyle1/people/womansitting/top/1" fill="#000" fill-opacity=".04" d="M29.1985812,15.4362657 C32.9065009,26.2769342 36.1525995,69.5506235 36.5459764,84.9847919 C40.0730204,88.21474 45.2606117,90.8110184 71.207361,118.114423 L72,118.949387 L67.1084898,129.325843 C37.9787529,112.601079 24.76174,102.945182 20.1366331,95.7831551 C19.9659292,95.6081112 19.8124275,95.4302955 19.6781449,95.2507905 C13.5582238,87.0715948 3.7882822,27.9350169 6.4493362,15.8222297 C9.11139628,3.7094426 24.828215,2.6558925 29.1985812,15.4362657 Z"></path></g></g></svg></g>
</g>
<g transform="translate(0.5,150)">

<g><svg xmlns="http://www.w3.org/2000/svg" width="198" height="277" viewBox="0 0 198 277"><g id="Symbols--globalStyle1/people/womansitting/chair/4" fill="none" fill-rule="evenodd" stroke="none" stroke-width="1"><g id="globalStyle1/people/womansitting/chair/4--globalStyle1/people/womansitting/chair/4" fill-rule="nonzero"><path id="Stroke-1--globalStyle1/people/womansitting/chair/4" fill="#1E3142" d="M132.980359,216.521908 L79.443203,276.948908 L95.2491933,171.419463 L132.943251,212.438009 L169.265974,171.440816 L188.556797,277 L132.980359,216.521908 Z M97.1072423,177.484904 L83.5162325,268.225927 L131.119291,214.4967 L97.1072423,177.484904 Z M184.162696,268.174835 L167.58531,177.463551 L134.80432,214.463217 L184.162696,268.174835 Z"></path><polygon id="[chair]chair--globalStyle1/people/womansitting/chair/4" fill="#58c2b3" points="180.215625 170.08192 81.9001302 170.08192 81.9001302 179.69392 180.215625 179.69392" opacity="1.00"></polygon></g></g></svg></g>
</g></g><g transform="translate(667,383)">
<g transform="translate(336,0) scale(-1, 1)">
<g transform="translate(74.5,86)">

<g><svg xmlns="http://www.w3.org/2000/svg" width="120" height="150" viewBox="0 0 120 150"><g id="Symbols--globalStyle1/people/mansitting/head/1" fill="none" fill-rule="evenodd" stroke="none" stroke-width="1"><g id="globalStyle1/people/mansitting/head/1--globalStyle1/people/mansitting/head/1"><path id="[skin]neck--globalStyle1/people/mansitting/head/1" fill="#f0a19e" d="M73.5962896,31.8571569 C74.7871802,20.5940317 80.0362067,12.2615231 85.3203185,13.2459779 C90.6044303,14.2304327 93.9226418,24.159058 92.7317513,35.4221831 C91.9415604,42.895598 89.3646888,49.0787465 86.1764021,52.1059664 L88.2485,92.0485 L68.7515,92.0485 L73.7796309,42.1737448 C73.298852,39.0516383 73.2084581,35.5251647 73.5962896,31.8571569 Z" opacity="1.00"></path><polygon id="shadow--globalStyle1/people/mansitting/head/1" fill="#000" fill-opacity=".04" points="68.7515 92.0485 88.2485 92.0485 85.5739012 40.509 74.2565 37.4535"></polygon><path id="[hair]hair--globalStyle1/people/mansitting/head/1" fill="#2a4862" d="M80.9935363,7.69177273 C95.9863414,5.98062769 95.670895,5.48069524 95.7567405,6.97962248 C95.8905852,9.31665372 95.3836929,24.2441008 91.1232358,23.8521417 C88.4178228,23.6032456 81.5187993,19.718292 78.0049348,21.3428627 C77.266691,21.6841762 76.6877328,24.8960053 76.2680605,30.97835 L76.2910761,30.6426547 L78.5370248,39.1687717 L85.7988346,39.1687717 C88.8794649,37.7707387 90.8242658,38.0536568 91.6332373,40.017526 C92.8466944,42.9633298 87.6831727,58.4950302 80.0899892,54.410355 C75.0278669,51.6872381 72.6056863,45.5385085 72.8234475,35.9641661 L72.9215306,35.7665222 C68.3683495,18.1838598 71.059018,8.82561003 80.9935363,7.69177273 Z" transform="rotate(-2 83.275 30.59)" opacity="1.00"></path><path id="smile--globalStyle1/people/mansitting/head/1" fill="#FFF" fill-rule="nonzero" d="M89.2777577,44.8888747 C89.9340077,44.8888747 91.2777577,44.4523947 91.2777577,42.8888747 C91.2777577,42.8888747 87.2777577,42.8888747 87.2777577,42.8888747 C87.2777577,44.336656 88.6215077,44.8888747 89.2777577,44.8888747 Z" transform="rotate(-2 89.278 43.889)"></path></g></g></svg></g>
</g>
<g transform="translate(59,248)">

<g><svg xmlns="http://www.w3.org/2000/svg" width="251" height="180" viewBox="0 0 251 180"><g id="Symbols--globalStyle1/people/mansitting/bottom/2" fill="none" fill-rule="evenodd" stroke="none" stroke-width="1"><g id="globalStyle1/people/mansitting/bottom/2--globalStyle1/people/mansitting/bottom/2"><path id="[skin]leg---globalStyle1/people/mansitting/bottom/2" fill="#f0a19e" d="M222.090704,66.270804 L202.178261,158.686359 L195.866261,162.082359 L195.866261,155.323359 C195.866261,155.323359 208.405261,62.5353593 208.627261,54.5143593 L222.090704,66.270804 Z" transform="rotate(-10 208.978 108.298)" opacity="1.00"></path><path id="shadow--globalStyle1/people/mansitting/bottom/2" fill="#000" fill-opacity=".04" d="M224.190903,55.8020765 L202.162185,158.502616 L195.850185,161.898616 L195.850185,155.139616 C195.850185,155.139616 208.389185,62.3516156 208.611185,54.3306156 L224.190903,55.8020765 Z" transform="rotate(-10 210.02 108.115)"></path><path id="[skin]leg---globalStyle1/people/mansitting/bottom/2" fill="#f0a19e" d="M201.029944,62.3044932 C172.291944,137.301493 161.091944,166.014493 161.091944,166.014493 C161.481944,165.960493 163.017944,166.876493 166.473944,168.929493 L219.297944,68.8744932 L201.029944,62.3044932 Z" transform="rotate(-25 190.195 115.617)" opacity="1.00"></path><path id="[clothes]shues--globalStyle1/people/mansitting/bottom/2" fill="#c9c8c8" d="M213.521486,178.790735 L213.521486,176.686761 C213.521486,176.686761 203.584974,176.678602 183.596707,176.695939 L183.596707,178.787675" opacity="1.00"></path><path id="Fill-6--globalStyle1/people/mansitting/bottom/2" fill="#E9E9E9" d="M201.736319,154.226519 L203.32896,176.718728 L233.253739,176.709549 C233.253739,176.709549 232.233878,174.649429 228.601131,174.581098 C223.15099,174.478092 210.167132,175.046155 210.684202,171.579645 C210.843301,170.51185 211.49921,167.389872 212.320199,154.226519 L201.736319,154.226519 Z"></path><path id="shadow--globalStyle1/people/mansitting/bottom/2" fill="#000" fill-opacity=".04" d="M201.736319,154.226519 L203.32896,176.718728 L233.253739,176.709549 C233.253739,176.709549 232.233878,174.649429 228.601131,174.581098 C223.15099,174.478092 210.167132,175.046155 210.684202,171.579645 C210.843301,170.51185 211.49921,167.389872 212.320199,154.226519 L201.736319,154.226519 Z"></path><path id="[clothes]shoes--globalStyle1/people/mansitting/bottom/2" fill="#c9c8c8" d="M233.253841 178.813626L233.253841 176.709651C233.253841 176.709651 223.31733 176.701492 203.329062 176.71883L203.329062 178.810566M82.0808907 23.3799252L202.999616 44.4069112C202.999616 44.4069112 216.671554 46.6578075 217.019592 61.0294013 219.054917 79.1527334 221.083963 119.251392 221.083963 119.251392L190.283123 119.102474 185.6095 77.8128528 93.8924223 70.1284422C93.8924223 70.1284422 73.7578384 67.9815919 70.9853208 46.5228786 67.4393926 19.0702099 82.0808907 23.3799252 82.0808907 23.3799252z" opacity="1.00"></path><path id="shadow--globalStyle1/people/mansitting/bottom/2" fill="#000" fill-opacity=".04" d="M82.0808907,23.3799252 L202.999616,44.4069112 C202.999616,44.4069112 216.671554,46.6578075 217.019592,61.0294013 C219.054917,79.1527334 221.083963,119.251392 221.083963,119.251392 L190.283123,119.102474 L185.6095,77.8128528 L93.8924223,70.1284422 C93.8924223,70.1284422 73.7578384,67.9815919 70.9853208,46.5228786 C67.4393926,19.0702099 82.0808907,23.3799252 82.0808907,23.3799252 Z"></path><path id="[clothes]pants--globalStyle1/people/mansitting/bottom/2" fill="#c9c8c8" d="M192.216154,38.7267462 L192.245424,38.7485932 C195.853621,40.327535 197.308657,42.8153149 197.624961,43.7738584 C202.782921,59.3921717 213.453574,103.187371 213.453574,103.187371 L180.124587,110.271666 L169.511183,71.8093257 L79.9215633,83.1439604 C79.9215633,83.1439604 58.4410985,85.6526054 52.6071643,64.8168891 C44.843319,37.0878721 58.6485787,39.8727661 58.6485787,39.8727661 L181.296714,35.2988257 C181.296714,35.2988257 187.194536,35.0261107 192.216154,38.7267462 Z" transform="rotate(12 131.846 72.783)" opacity="1.00"></path><path id="Fill-1--globalStyle1/people/mansitting/bottom/2" fill="#E9E9E9" d="M181.210857,154.044076 L183.596095,176.695837 L213.521894,176.686659 C213.521894,176.686659 212.502032,174.626538 208.869285,174.558207 C203.419145,174.454182 190.889118,175.109694 191.406187,171.643185 C191.565286,170.57437 192.191209,167.389872 193.011178,154.226519 L181.210857,154.044076 Z"></path></g></g></svg></g>
</g>
<g transform="translate(108,142)">

<g><svg xmlns="http://www.w3.org/2000/svg" width="193" height="178" viewBox="0 0 193 178"><g id="Symbols--globalStyle1/people/mansitting/top/6" fill="none" fill-rule="evenodd" stroke="none" stroke-width="1"><g id="globalStyle1/people/mansitting/top/6--globalStyle1/people/mansitting/top/6"><polygon id="Fill-18--globalStyle1/people/mansitting/top/6" fill="#757578" points="77.5 154.521173 77.5032884 156.487647 129.499779 159 129.499779 157.181504"></polygon><polygon id="Fill-20--globalStyle1/people/mansitting/top/6" fill="#B0B0B6" points="129.499779 157.181175 77.5 154.520844 117.469644 137.254449 156.971236 139.281211"></polygon><polygon id="Fill-22--globalStyle1/people/mansitting/top/6" fill="#8C8C92" points="130.370552 155.458811 104.057715 154.20373 133.428783 139.376247 154.267498 140.442791"></polygon><polyline id="Fill-24--globalStyle1/people/mansitting/top/6" fill="#8B8B8D" points="129.4966 157.181175 129.499888 158.999671 156.973538 140.859653 156.971346 139.281211"></polyline><polygon id="Fill-26--globalStyle1/people/mansitting/top/6" fill="#9D9DA3" points="109.775181 147.710965 99.3837746 147.196876 108.800712 143.10937 118.47305 143.588383"></polygon><path id="[skin]hand--globalStyle1/people/mansitting/top/6" fill="#f0a19e" d="M55.3353224,39.6596257 C55.3353224,39.6596257 68.3858484,39.5865277 75.5203027,40.7995475 C74.7303942,45.2363567 71.0360215,86.2741389 69.6656004,100.235327 C75.6446817,104.006947 87.2880875,112.054236 110.649314,127.678909 L109.922833,127.19278 L119.802765,130.91495 C123.567841,132.47371 126.197316,134.3298 127.668029,135.225471 L127.826672,135.320973 C130.449137,136.879427 135.836893,141.097946 136.277508,141.875512 C136.718281,142.652112 136.21399,143.039734 134.963632,142.115755 C134.337219,141.652587 134.105644,141.433961 133.714632,141.2009 C133.41894,141.024989 131.920377,139.97792 131.525447,139.757139 C129.796488,138.785847 128.431056,137.907702 128.562711,138.137819 C128.694207,138.368904 131.179429,139.621097 132.957894,140.922898 C133.379587,141.229989 134.317921,142.315357 134.548473,142.598218 C135.531097,143.802291 136.177695,144.809435 136.48795,145.621584 C136.606893,145.934957 136.385067,146.196303 135.99234,146.205689 C135.907322,146.207569 135.817549,146.197825 135.729838,146.175518 C135.116923,146.024484 134.310967,144.544246 133.444227,143.683789 C133.155314,143.39697 132.54103,142.7613 132.204963,142.49502 C130.047186,140.778673 126.651961,139.080444 127.172772,139.502724 C127.693584,139.925003 129.662524,141.382689 130.801355,142.156893 C131.715784,142.778949 132.134605,143.028144 133.489975,144.941963 C134.302794,146.090391 135.486542,148.336623 135.442907,148.567717 C135.399589,148.796877 134.999056,148.703035 134.96135,148.683409 C134.250296,148.324215 133.800973,148.034699 133.615711,147.812247 C132.264736,146.202238 131.726095,144.589448 129.730389,143.405058 C127.735929,142.218876 125.384787,140.532446 125.563612,140.817317 C125.678104,141.001226 127.040842,142.174174 128.148544,143.109064 C129.784552,144.490163 131.510892,146.295181 131.989291,146.952703 C132.317372,147.401034 132.605438,147.826414 132.854892,148.226086 C132.965533,148.404454 132.883402,148.580138 132.671421,148.619101 C132.593785,148.633995 132.506321,148.627576 132.419856,148.603478 C131.818017,148.43135 131.394144,148.207141 131.146991,147.932641 C130.34464,147.039418 130.193962,146.803423 128.872093,145.752621 C128.642395,145.568955 126.701077,144.215542 126.323977,143.909315 C123.663734,141.751695 120.534552,140.288252 120.33219,140.401991 C118.6047,141.36467 120.42426,141.85348 121.334791,143.798448 C123.27018,144.445614 124.519459,145.248568 125.758233,146.643318 C125.816976,146.708753 125.723035,147.01439 125.205693,146.855162 L125.205693,146.855162 L118.748545,144.675586 L114.407529,140.064095 L107.474563,134.500774 L107.490217,134.449998 C107.489214,134.449714 107.48821,134.449431 107.487207,134.449147 L107.444284,134.540734 C70.4761357,120.829754 52.2520745,114.819553 52.771658,107.090902 C52.7721553,106.981688 52.7738752,106.873314 52.7767976,106.765784 C50.6879579,94.1944119 54.7272159,51.4151432 55.3353224,39.6596257 Z" opacity="1.00"></path><path id="[clothes]tshirt--globalStyle1/people/mansitting/top/6" fill="#294b67" d="M60.9733946,28.5840669 L60.9733946,28.5840669 C68.8176735,27.4673233 76.1131027,33.3029182 77.2115714,41.5744927 L80.1773332,63.8918218 L52.1329787,67.8863207 L48.9759957,45.4232198 C47.8240341,37.2265872 53.1920417,29.6929884 60.9733946,28.5840669" opacity="1.00"></path><path id="shadow--globalStyle1/people/mansitting/top/6" fill="#000" fill-opacity=".04" d="M60.9733946,28.5840669 L60.9733946,28.5840669 C68.8176735,27.4673233 76.1131027,33.3029182 77.2115714,41.5744927 L80.1773332,63.8918218 L52.1329787,67.8863207 L48.9759957,45.4232198 C47.8240341,37.2265872 53.1920417,29.6929884 60.9733946,28.5840669"></path><path id="[clothes]tshirt--globalStyle1/people/mansitting/top/6" fill="#294b67" d="M53.3637103,28.1431761 C53.3637103,28.1431761 42.3370137,19 37.3210908,19 C10.0282601,19 2.28974629,39.7330122 3.05006595,69.3287657 C3.14318591,72.9403361 3.54446574,87.7172964 4.70606522,114.607858 C5.01710508,121.810083 5.35790493,144.575184 5.70734478,151.741551 C7.01774419,178.572352 76.4170734,167.046403 75.050994,140.162813 C74.7687541,134.607011 75.8141937,103.692469 77.1533931,69.9532706 C77.5066729,61.0448631 78.0922727,42.2200754 75.3159539,34.7011165 C71.5882756,24.6034606 59.4135059,21.3880007 53.9885483,20.5921803 C53.5719896,25.6261775 53.3637103,28.1431761 53.3637103,28.1431761 Z" opacity="1.00"></path><path id="[skin]hand--globalStyle1/people/mansitting/top/6" fill="#f0a19e" d="M19.2531129,40.3889402 C26.1364098,39.9087198 32.0661615,45.5501561 32.3672113,52.8546507 C33.0243739,68.8177421 34.4902357,94.9983047 34.8839342,104.899612 C38.7616741,108.736493 49.4420538,121.704714 72.6271477,148.771174 L72.3807605,148.483412 L72.43388,148.492896 C74.3426641,148.882784 75.6126402,150.610263 75.2932738,152.439175 C74.9632618,154.329051 73.0615308,155.609467 71.0462052,155.300148 C70.631565,155.236508 70.2443665,155.110546 69.8937438,154.934143 L69.8614202,155.008412 C44.4505655,139.069115 28.5934359,127.434982 21.7795439,119.283507 C21.4892776,119.019226 21.2110429,118.730181 20.9472002,118.417422 C20.3932914,117.760817 19.9381322,117.041588 19.5810172,116.282087 C19.3550659,115.914897 19.1522524,115.557191 18.972222,115.207973 C18.3622233,114.48118 17.930447,113.729416 17.7433934,113.025577 C15.8459344,105.888384 9.82083007,74.3263138 7.6426725,54.8394225 C6.81959097,47.4726749 11.9387959,40.9116631 18.9188357,40.412433 L18.9188357,40.412433 Z" opacity="1.00"></path><path id="[skin]hand--globalStyle1/people/mansitting/top/6" fill="#f0a19e" d="M69.8614202,154.993658 L73.2674342,148.771174 L77.1399465,149.158905 L86.955879,148.938581 L93.3803547,151.737026 C93.8856752,151.973792 93.7552346,152.262077 93.6653511,152.270846 C91.7821828,152.449517 90.287048,152.18754 88.3655149,151.344608 C86.368348,152.150271 84.6419278,151.270071 85.3313997,153.152143 C85.4125141,153.373563 88.797394,154.431338 92.2820226,154.659335 C92.7774778,154.693315 95.1736395,155.021061 95.4717896,155.04408 C97.1905369,155.172329 97.4623796,155.103272 98.6758064,154.993658 C99.0484939,154.960774 99.5231225,155.085734 100.10298,155.369634 C100.185191,155.410191 100.25644,155.466094 100.306863,155.528574 C100.444976,155.701764 100.390169,155.887012 100.186287,155.941819 C99.7281007,156.065683 99.2238763,156.179681 98.672518,156.287103 C97.8668552,156.442755 95.3347721,156.590734 93.1567422,156.489889 C91.6802418,156.421928 89.8496882,156.353967 89.6381332,156.40987 C89.3114836,156.497562 92.24585,156.862576 94.5707626,157.350358 C96.8967714,157.840333 98.3853293,157.024805 100.497591,156.762828 C100.788068,156.726655 101.327369,156.819827 102.114397,157.040151 C102.15605,157.052208 102.527642,157.25609 102.408163,157.454492 C102.287587,157.652893 99.8815602,158.493632 98.4905588,158.783013 C96.172223,159.265315 95.6844407,159.162278 94.5663781,158.994568 C93.1731843,158.787398 90.6860429,158.515555 90.004244,158.470613 C89.322445,158.426768 93.0679549,159.492216 95.8718806,159.703771 C96.3081443,159.736655 97.2047867,159.689521 97.6180314,159.676367 C98.8577656,159.633618 100.464707,159.096509 101.036892,159.403428 C101.119102,159.44837 101.194736,159.500985 101.259408,159.561273 C101.556462,159.835308 101.553174,160.179495 101.252831,160.326378 C100.473476,160.711123 99.3049907,161.009273 97.7473759,161.224117 C97.3801691,161.274539 95.9354567,161.430191 95.4060212,161.369903 C93.1698959,161.112311 90.4218732,160.338436 90.1675688,160.418454 C89.9121682,160.498472 91.548705,160.783469 93.5272375,161.249328 C93.9777509,161.355654 95.8291312,161.607766 96.1744152,161.681207 C96.6304094,161.776571 96.9548668,161.774379 97.7451837,161.860974 C99.3236251,162.033068 99.4540657,162.661156 98.5979805,162.931903 C97.7407991,163.201553 90.7835994,162.62608 87.7253692,161.983742 C86.0515636,161.631881 82.6951834,161.225213 78.6109662,159.752001 L69.8614202,154.993658 Z" opacity="1.00"></path><path id="[clothes]tshirt--globalStyle1/people/mansitting/top/6" fill="#294b67" d="M19.9819621,31.8695652 L19.9819621,31.8695652 C27.9053217,31.8554245 34.3175945,38.6495553 34.2541922,46.9935086 L34.0851196,69.5064013 L5.75776398,69.5590062 L5.75776398,46.8751475 C5.75776398,38.5979619 12.1220047,31.8847618 19.9819621,31.8695652" opacity="1.00"></path><path id="shadow--globalStyle1/people/mansitting/top/6" fill="#000" fill-opacity=".04" d="M19.9819621,31.8695652 L19.9819621,31.8695652 C27.9053217,31.8554245 34.3175945,38.6495553 34.2541922,46.9935086 L34.0851196,69.5064013 L5.75776398,69.5590062 L5.75776398,46.8751475 C5.75776398,38.5979619 12.1220047,31.8847618 19.9819621,31.8695652"></path><polygon id="Fill-35--globalStyle1/people/mansitting/top/6" fill="#818182" points="128.521884 157.412819 155.993342 139.512855 176.790403 99.0488519 149.008738 116.879759"></polygon><path id="Fill-38--globalStyle1/people/mansitting/top/6" fill="#BEBEBF" d="M155.59621,129.987948 C154.568031,132.136382 153.383104,133.529575 152.490846,133.103177 C151.599684,132.675682 151.710394,130.588632 152.738574,128.440198 C153.767849,126.29286 155.324368,124.896378 156.215529,125.323872 C157.107787,125.751367 156.624389,127.839513 155.59621,129.987948"></path></g></g></svg></g>
</g>
<g transform="translate(26,150)">

<g><svg xmlns="http://www.w3.org/2000/svg" width="198" height="277" viewBox="0 0 198 277"><g id="Symbols--globalStyle1/people/mansitting/chair/2" fill="none" fill-rule="evenodd" stroke="none" stroke-width="1"><g id="globalStyle1/people/mansitting/chair/2--globalStyle1/people/mansitting/chair/2" fill-rule="nonzero"><g id="chair--globalStyle1/people/mansitting/chair/2" transform="rotate(-4 920.027 162.622)"><path id="Path-199-Copy--globalStyle1/people/mansitting/chair/2" fill="#545252" d="M194.034036,113.484179 L167.396678,208.820819 C165.942249,213.990587 161.267516,217.571344 155.927584,217.605928 L34.4255236,218.439342 C27.7982439,218.482264 22.3911903,213.111537 22.3485315,206.443488 C22.3418331,205.396464 22.4705255,204.353011 22.7313698,203.339391 L54.5253054,32.6165609 L52.5891532,32.1121639 L20.7952176,202.834994 C20.4908993,204.017551 20.3407581,205.234913 20.3473093,206.456441 C20.3983416,214.235831 26.7065708,220.501679 34.4383971,220.452488 L155.940457,219.61819 C162.170378,219.577842 167.624233,215.400292 169.321068,209.368895 L194.034036,118.552586 L194.034036,113.484179 Z" transform="rotate(4 107.19 126.282)"></path><path id="Path-199--globalStyle1/people/mansitting/chair/2" fill="#828282" d="M184.838556,125.21838 L161.449614,208.145158 C159.995185,213.301917 155.320452,216.873664 149.980519,216.90816 L21.2969534,217.739477 C14.6696737,217.782291 9.26262009,212.425079 9.2199612,205.773811 C9.21326285,204.729421 9.34195529,203.688594 9.60279951,202.677525 L44.0932893,15.0585444 L42.1571371,14.5554168 L7.66664733,202.174397 C7.36232907,203.353978 7.21218789,204.568277 7.2197126,205.786731 C7.26977134,213.546544 13.5780005,219.796624 21.3098268,219.746972 L149.993393,218.915358 C156.223314,218.875112 161.677169,214.708075 163.374003,208.691856 L187.407451,123.6166 L184.838556,125.21838 Z" transform="rotate(4 97.313 117.151)"></path><path id="[chair]chair--globalStyle1/people/mansitting/chair/2" fill="#58c2b3" d="M61.2872062,0.984723398 L63.2188102,1.07286342 C70.8035022,1.41895656 77.0983189,7.00150753 78.2860826,14.4352566 L90.0363083,88.034232 C93.8866633,107.932772 116.191431,108.42312 186.57153,112.389504 L186.57153,112.389504 L187.097382,112.37339 C192.149375,112.37339 196.244824,116.738023 196.244824,122.122072 C196.244824,122.240929 196.242845,122.359777 196.238887,122.478559 C196.054147,128.022905 191.687004,132.35788 186.4846,132.160997 C136.977543,139.070525 104.186387,137.450012 88.1111347,127.299457 C87.0258548,126.711756 85.9420589,125.924445 84.860869,124.943326 C83.0740997,123.449597 81.5745399,121.810502 80.3618372,120.025025 C76.5932977,114.476559 74.2139118,109.92312 72.9691468,106.169058 C64.5309181,87.0976351 56.4037304,56.2366227 48.9041002,15.0025025 C47.7260922,8.52584117 52.0677932,2.32887006 58.6015242,1.16118663 L61.2872062,0.984723398 Z" opacity="1.00"></path></g></g></g></svg></g>
</g>
</g></g><g transform="translate(42,582)">
<g><svg xmlns="http://www.w3.org/2000/svg" width="148" height="228" viewBox="0 0 148 228"><g id="Symbols--globalStyle1/objects/plant/1" fill="none" fill-rule="evenodd" stroke="none" stroke-width="1"><g id="globalStyle1/objects/plant/1--globalStyle1/objects/plant/1"><path id="[color:plant]plant--globalStyle1/objects/plant/1" fill="#587267" fill-rule="nonzero" d="M39.0353745,130.922167 C45.5589591,108.811247 63.0566443,104.163755 91.5284298,116.979691 C74.783247,137.114679 57.2855619,141.762171 39.0353745,130.922167 Z" transform="scale(-1 1) rotate(-22 0 459.115)" opacity="1.00"></path><g id="Group--globalStyle1/objects/plant/1" fill="#2E4038" fill-rule="nonzero" transform="translate(52.062 17.216)"><path id="Path-38-Copy-2--globalStyle1/objects/plant/1" d="M34.1853871,57.4576356 L34.5495826,52.4606184 L34.1853871,83.1531054 C34.1853871,107.207135 34.1853871,123.424382 34.1853871,131.804844 C34.1853871,144.375538 34.5495826,163.594894 34.3674849,167.777289 C34.2460864,170.565552 34.0304115,183.793329 33.7204602,207.460618 L33.0495826,207.460618 C33.5495826,187.398944 33.7995826,173.835093 33.7995826,166.769066 C33.7995826,156.170025 33.8787049,139.781079 33.7995826,128.426391 C33.7204602,117.071703 33.7995826,88.353111 33.7995826,76.9241193 C33.7995826,69.3047914 33.9281841,62.8159635 34.1853871,57.4576356 Z" transform="rotate(-9 33.8 129.96)"></path><path id="Path-38-Copy-4--globalStyle1/objects/plant/1" d="M25.3086392,82.7801311 L26.5216445,78.1806229 L25.3263618,106.436214 C25.3429522,128.581135 25.3541375,143.511257 25.3599177,151.226583 C25.3685879,162.799571 26.5982956,180.494442 25.9929544,184.344437 C25.6895516,186.27409 25.2122334,193.635957 24.5609996,206.430037 C24.3460169,210.653569 22.5097361,210.659443 22.8504854,206.307356 C23.6838908,195.663012 24.0988639,188.032166 24.0954047,183.414818 C24.0880944,173.656997 24.3410677,158.569 24.0689592,148.115308 C23.7968506,137.661616 24.04132,111.222546 24.0334372,100.700646 C24.028182,93.6860452 24.4532494,87.7125404 25.3086392,82.7801311 Z" transform="rotate(-20 24.665 143.883)"></path><path id="Path-38-Copy-5--globalStyle1/objects/plant/1" d="M13.194895,36.5880146 L14.4162537,31.9853401 L13.1684397,60.248741 C13.1436743,82.398008 13.1269775,97.3310615 13.1183492,105.047902 C13.1054068,116.623161 14.3018331,134.319242 13.68942,138.171124 C13.3824728,140.101723 12.8915,147.465934 12.2165015,160.263755 C11.9936737,164.488521 10.1577385,164.497813 10.5065485,160.144232 C11.3596689,149.496233 11.788811,141.863106 11.7939747,137.244852 C11.8048872,127.485116 12.0859862,112.393665 11.8334513,101.938413 C11.5809163,91.4831616 11.8747096,65.0384104 11.8864765,54.5144445 C11.8943212,47.4984672 12.3304607,41.5229906 13.194895,36.5880146 Z" transform="scale(-1 1) rotate(8 0 -80.189)"></path><path id="Path-38-Copy-3--globalStyle1/objects/plant/1" d="M14.3116579,5.56389917 L15.6941901,0 L14.3116579,34.1743676 C14.3116579,60.9571846 14.3116579,79.0141812 14.3116579,88.3453574 C14.3116579,102.342122 15.6941901,123.7418 15.002924,128.398663 C14.5420799,131.503238 13.7233508,146.231628 12.5467366,172.583831 L10,172.583831 C11.8980634,150.246278 12.847095,135.143689 12.847095,127.276063 C12.847095,115.474624 13.1474535,97.2264496 12.847095,84.5836391 C12.5467366,71.9408286 12.847095,39.9642831 12.847095,27.2387399 C12.847095,18.7550445 13.3352827,11.5300976 14.3116579,5.56389917 Z" transform="matrix(-1 0 0 1 25.694 0)"></path></g><path id="shadow--globalStyle1/objects/plant/1" fill="#000" fill-opacity=".3" d="M39.0353745,130.922167 C45.5589591,108.811247 63.0566443,104.163755 91.5284298,116.979691 C74.783247,137.114679 57.2855619,141.762171 39.0353745,130.922167 Z" transform="scale(-1 1) rotate(-22 0 459.115)"></path><path id="Path-12--globalStyle1/objects/plant/1" fill="#979797" fill-rule="nonzero" d="M38.21593,135.862847 C49.1762314,126.150966 67.6232088,121.10296 94.8510335,118.001486 L94.7904276,117.469426 C67.4551166,120.583144 48.9318541,125.652026 37.8607888,135.462054 L38.21593,135.862847 Z" transform="scale(-1 1) rotate(-22 0 468.038)"></path><path id="[color:plant]plant--globalStyle1/objects/plant/1" fill="#587267" fill-rule="nonzero" d="M60.4708002,76.8075623 C65.2164245,60.848084 77.9452301,57.493563 98.6572169,66.7439994 C86.475824,81.2772662 73.7470185,84.6317872 60.4708002,76.8075623 Z" transform="scale(-1 1) rotate(-9 0 1082.24)" opacity="1.00"></path><path id="shadow--globalStyle1/objects/plant/1" fill="#000" fill-opacity=".3" d="M60.4708002,76.8075623 C65.2164245,60.848084 77.9452301,57.493563 98.6572169,66.7439994 C86.475824,81.2772662 73.7470185,84.6317872 60.4708002,76.8075623 Z" transform="scale(-1 1) rotate(-9 0 1082.24)"></path><path id="Path-12--globalStyle1/objects/plant/1" fill="#979797" fill-rule="nonzero" d="M60.680747,80.1586709 C68.6277217,73.1419468 82.0182113,69.4906862 101.783226,67.2472995 L101.722833,66.7152159 C81.850511,68.9707823 68.3840058,72.6427705 60.3263155,79.7572502 L60.680747,80.1586709 Z" transform="scale(-1 1) rotate(-9 0 1103.335)"></path><path id="[color:plant]plant--globalStyle1/objects/plant/1" fill="#587267" fill-rule="nonzero" d="M54.4020142,95.4316305 C59.8594877,76.8652093 74.497629,72.9627353 98.3164379,83.7242084 C84.3078219,100.63145 69.6696807,104.533924 54.4020142,95.4316305 Z" transform="scale(-1 1) rotate(-29 0 384.265)" opacity="1.00"></path><path id="shadow--globalStyle1/objects/plant/1" fill="#000" fill-opacity=".3" d="M54.4020142,95.4316305 C59.8594877,76.8652093 74.497629,72.9627353 98.3164379,83.7242084 C84.3078219,100.63145 69.6696807,104.533924 54.4020142,95.4316305 Z" transform="scale(-1 1) rotate(-29 0 384.265)"></path><path id="Path-12-Copy--globalStyle1/objects/plant/1" fill="#979797" fill-rule="nonzero" d="M53.7125799,100.045809 C62.8500935,91.8872257 78.2380936,87.6441313 100.951512,85.0371158 L100.890449,84.5051087 C78.0691635,87.1245051 62.6043015,91.3887934 53.3559263,99.6463611 L53.7125799,100.045809 Z" transform="scale(-1 1) rotate(-29 0 390.607)"></path><path id="[color:plant]plant--globalStyle1/objects/plant/1" fill="#587267" fill-rule="nonzero" d="M99.7384984,73.8063539 C105.195972,55.2399327 119.834113,51.3374587 143.652922,62.0989319 C129.644306,79.0061735 115.006165,82.9086475 99.7384984,73.8063539 Z" transform="rotate(-29 121.696 67.38)" opacity="1.00"></path><path id="Path-12-Copy--globalStyle1/objects/plant/1" fill="#979797" fill-rule="nonzero" d="M97.4600783,78.4205323 C106.597592,70.2619492 121.985592,66.0188548 144.69901,63.4118393 L144.637947,62.8798322 C121.816662,65.4992285 106.3518,69.7635169 97.1034247,78.0210846 L97.4600783,78.4205323 Z" transform="rotate(-29 120.901 70.65)"></path><path id="[color:plant]plant--globalStyle1/objects/plant/1" fill="#587267" fill-rule="nonzero" d="M95.1031978,119.613979 C99.8439335,103.586655 112.559626,100.217874 133.250277,109.507635 C121.081433,124.102684 108.36574,127.471466 95.1031978,119.613979 Z" transform="rotate(-19 114.177 114.067)" opacity="1.00"></path><path id="Path-12-Copy--globalStyle1/objects/plant/1" fill="#979797" fill-rule="nonzero" d="M92.6777421,123.390638 C100.616622,116.313099 113.993269,112.630249 133.738152,110.367418 L133.677181,109.835401 C113.824508,112.110584 100.371114,115.814565 92.3213918,122.99092 L92.6777421,123.390638 Z" transform="rotate(-19 113.03 116.613)"></path><path id="[color:plant]plant--globalStyle1/objects/plant/1" fill="#587267" fill-rule="nonzero" d="M64.3115703,105.433416 C71.5861772,80.8370438 91.0982685,75.667135 122.847844,89.9236898 C104.174886,112.322019 84.6627951,117.491928 64.3115703,105.433416 Z" transform="rotate(-13 93.58 96.92)" opacity="1.00"></path><path id="Path-12--globalStyle1/objects/plant/1" fill="#979797" fill-rule="nonzero" d="M60.2278643,110.679292 C72.4563533,99.8700644 93.0315068,94.2533963 123.40016,90.8025801 L123.3397,90.2705042 C92.8636827,93.7335202 72.2124286,99.3709625 59.8732084,110.27807 L60.2278643,110.679292 Z" transform="rotate(-13 91.637 100.475)"></path><path id="[color:plant]plant--globalStyle1/objects/plant/1" fill="#587267" fill-rule="nonzero" d="M5.58320161,127.470035 C13.2950429,102.023881 33.0257514,96.4290815 64.7753272,110.685636 C46.1023694,133.083965 26.3716609,138.678765 5.58320161,127.470035 Z" transform="scale(-1 1) rotate(-20 0 317.554)" opacity="1.00"></path><path id="shadow--globalStyle1/objects/plant/1" fill="#000" fill-opacity=".3" d="M5.58320161,127.470035 C13.2950429,102.023881 33.0257514,96.4290815 64.7753272,110.685636 C46.1023694,133.083965 26.3716609,138.678765 5.58320161,127.470035 Z" transform="scale(-1 1) rotate(-20 0 317.554)"></path><path id="Path-12--globalStyle1/objects/plant/1" fill="#979797" fill-rule="nonzero" d="M5.25888765,131.622711 C17.4873767,120.813483 38.0625301,115.196815 68.4311834,111.745999 L68.3707232,111.213923 C37.894706,114.676939 17.2434519,120.314381 4.9042318,131.221488 L5.25888765,131.622711 Z" transform="scale(-1 1) rotate(-20 0 329.371)"></path><path id="[color:plant]plant--globalStyle1/objects/plant/1" fill="#587267" fill-rule="nonzero" d="M65.7063009,43.4453874 C70.9994974,25.6083235 85.1970113,21.859153 108.298843,32.1978759 C94.7119045,48.4409389 80.5143906,52.1901094 65.7063009,43.4453874 Z" opacity="1.00"></path><path id="shadow--globalStyle1/objects/plant/1" fill="#000" fill-opacity=".3" d="M65.7063009,43.4453874 C70.9994974,25.6083235 85.1970113,21.859153 108.298843,32.1978759 C94.7119045,48.4409389 80.5143906,52.1901094 65.7063009,43.4453874 Z"></path><path id="Path-12--globalStyle1/objects/plant/1" fill-rule="nonzero" stroke="#979797" stroke-width=".535" d="M62.0620193,46.6761488 C72.5677148,37.3814053 92.0234103,33.9979263 108.071075,32.172775"></path><path id="[color:plant]plant--globalStyle1/objects/plant/1" fill="#587267" fill-rule="nonzero" d="M62.8711983,64.4945253 C68.9569589,43.8410829 85.2803037,39.4999381 111.841233,51.471091 C96.2198868,70.2788481 79.896542,74.6199929 62.8711983,64.4945253 Z" transform="rotate(-20 87.356 57.346)" opacity="1.00"></path><path id="Path-12-Copy--globalStyle1/objects/plant/1" fill="#979797" fill-rule="nonzero" d="M59.7486665,69.4210476 C69.9445253,60.339674 87.1085727,55.6183778 112.443124,52.717594 L112.382207,52.1855701 C86.9399111,55.0986906 69.6991868,59.8410783 59.3924969,69.0211683 L59.7486665,69.4210476 Z" transform="rotate(-20 85.918 60.803)"></path><path id="[color:plant]plant--globalStyle1/objects/plant/1" fill="#587267" fill-rule="nonzero" d="M16.4826856,33.4058611 C22.5684462,12.7524187 38.891791,8.41127392 65.4527202,20.3824268 C49.8313741,39.1901839 33.5080293,43.5313287 16.4826856,33.4058611 Z" transform="scale(-1 1) rotate(-20 0 258.597)" opacity="1.00"></path><path id="[color:plant]plant--globalStyle1/objects/plant/1" fill="#587267" fill-rule="nonzero" d="M27.7655965,58.9699718 C31.4037187,46.5551962 41.1619605,43.9457359 57.0403218,51.1415909 C47.7017412,62.4469258 37.9434995,65.0563861 27.7655965,58.9699718 Z" transform="scale(-1 1) rotate(-20 0 295.152)" opacity="1.00"></path><path id="shadow--globalStyle1/objects/plant/1" fill="#000" fill-opacity=".3" d="M27.7655965,58.9699718 C31.4037187,46.5551962 41.1619605,43.9457359 57.0403218,51.1415909 C47.7017412,62.4469258 37.9434995,65.0563861 27.7655965,58.9699718 Z" transform="scale(-1 1) rotate(-20 0 295.152)"></path><path id="Path-12-Copy--globalStyle1/objects/plant/1" fill="#979797" fill-rule="nonzero" d="M15.9211517,38.2339803 C26.1170105,29.1526066 43.2810579,24.4313105 68.6156089,21.5305267 L68.5546926,20.9985027 C43.1123964,23.9116233 25.871672,28.6540109 15.5649822,37.8341009 L15.9211517,38.2339803 Z" transform="scale(-1 1) rotate(-20 0 268.322)"></path><path id="Path-12-Copy-2--globalStyle1/objects/plant/1" fill="#979797" fill-rule="nonzero" d="M27.5529178,63.341174 C29.9845703,61.1624615 31.8456941,59.7407505 33.6397811,58.9209563 C37.1777604,57.304304 41.4440437,56.0330689 47.0148101,54.783978 C51.0750426,53.8735827 55.4540919,53.1901296 60.6062226,52.596713 L60.5449494,52.0647301 C55.3755845,52.6601317 50.978997,53.346322 46.8976481,54.2614521 C41.2936531,55.5179936 36.9961576,56.798529 33.4172225,58.4338958 C31.5581849,59.2833687 29.6666331,60.7283236 27.1955738,62.9423438 L27.5529178,63.341174 Z" transform="scale(-1 1) rotate(-20 0 306.677)"></path><path id="[color:plant]plant--globalStyle1/objects/plant/1" fill="#587267" fill-rule="nonzero" d="M19.832873,84.9972428 C25.1181309,67.1686595 39.2974284,63.4221801 62.3707656,73.7578048 C48.8021434,89.9925363 34.6228459,93.7390156 19.832873,84.9972428 Z" transform="scale(-1 1) rotate(-11 0 505.686)" opacity="1.00"></path><path id="Path-12-Copy--globalStyle1/objects/plant/1" fill="#979797" fill-rule="nonzero" d="M19.8906707,88.9262602 C28.8674266,80.9429413 44.7506674,76.3612424 65.7708981,73.9581196 C65.9178153,73.9413234 66.0232993,73.8086074 66.0065031,73.6616902 C65.9897069,73.5147729 65.8569909,73.409289 65.7100736,73.4260852 C44.5856989,75.8411142 28.6195907,80.4467171 19.5348048,88.5261106 C19.4243065,88.6243803 19.4143933,88.7936201 19.512663,88.9041184 C19.6109326,89.0146167 19.7801725,89.0245299 19.8906707,88.9262602 Z" transform="scale(-1 1) rotate(-10 0 569.577)"></path><path id="[color:plant]plant--globalStyle1/objects/plant/1" fill="#587267" fill-rule="nonzero" d="M65.7549663,143.238828 C71.0414751,125.409898 85.2210515,121.662438 108.293695,131.996446 C94.7239233,148.232101 80.544347,151.979561 65.7549663,143.238828 Z" transform="rotate(-10 87.024 137.068)" opacity="1.00"></path><path id="Path-12-Copy--globalStyle1/objects/plant/1" fill="#979797" fill-rule="nonzero" d="M62.6006403,147.18265 C71.4598729,139.303848 86.3810056,135.205775 108.405267,132.687867 L108.344442,132.155833 C86.2125123,134.68605 71.2148185,138.80515 62.2447744,146.7825 L62.6006403,147.18265 Z" transform="rotate(-10 85.325 139.67)"></path><polygon id="Rectangle-Copy-20--globalStyle1/objects/plant/1" fill="#E5E7ED" fill-rule="nonzero" points="49.1648352 164.749556 102.532102 164.749556 98.4661681 228.000295 53.2307692 228.000295"></polygon><polygon id="Rectangle-Copy-21--globalStyle1/objects/plant/1" fill="#D1D4DD" fill-rule="nonzero" points="46.16715 155.030195 105.529787 155.030195 105.529787 175.278863 46.16715 175.278863" transform="matrix(1 0 0 -1 0 330.31)"></polygon></g></g></svg></g></g><g transform="translate(336.5,582)">
<g transform="translate(223,0) scale(-1, 1)">
<g><svg xmlns="http://www.w3.org/2000/svg" width="223" height="228" viewBox="0 0 223 228"><g id="Symbols--globalStyle1/animals/dogvscat/5" fill="none" fill-rule="evenodd" stroke="none" stroke-width="1"><g id="globalStyle1/animals/dogvscat/5--globalStyle1/animals/dogvscat/5"><path id="[color]color--globalStyle1/animals/dogvscat/5" fill="#233a48" fill-rule="nonzero" d="M55.388324,129.04407 C55.8542585,128.84439 56.4314995,128.87469 57.1448039,129.186462 L57.0811371,129.15958 C58.6764461,129.633474 59.8411242,131.108982 59.8437879,132.857842 C59.8439529,132.944876 59.8412408,133.031243 59.8357413,133.116852 C60.8423523,136.696253 61.1888423,142.135352 64.0708426,147.938312 C64.4440658,148.689825 64.8299892,149.470245 65.1896495,150.264029 C66.3981424,151.246321 67.2676712,152.628105 67.5963788,154.208383 C69.559249,156.518458 71.9567583,159.465552 74.7150301,163.090102 C77.6163434,166.903547 84.2727558,173.109777 79.5378181,178.163693 C74.0705324,183.99845 67.2823559,176.884816 63.7976517,172.835378 C60.8833386,169.44951 56.5909449,163.997987 54.4945564,159.331946 C53.5765756,157.511776 53.0624885,155.052795 52.9316507,152.229954 C52.7113936,147.491725 52.9403825,141.877499 53.437766,135.775952 C52.6280038,135.069825 52.1160791,134.03085 52.1143142,132.871626 C52.1106467,130.936905 53.5286912,129.331809 55.3835723,129.045441 Z" opacity="1.00"></path><path id="shadow--globalStyle1/animals/dogvscat/5" fill="#000" fill-opacity=".04" d="M55.3733592,129.04407 C55.8392937,128.84439 56.4165347,128.87469 57.1298392,129.186462 L57.0661723,129.15958 C58.6614813,129.633474 59.8261594,131.108982 59.8288231,132.857842 C59.8289881,132.944876 59.826276,133.031243 59.8207765,133.116852 C60.8273876,136.696253 61.1738776,142.135352 64.0558778,147.938312 C64.3927863,148.616703 64.697947,149.344072 64.9607581,150.098082 C66.2798979,151.085797 67.2335329,152.535927 67.581414,154.208383 C69.5442842,156.518458 71.9417935,159.465552 74.7000653,163.090102 C77.6013786,166.903547 84.257791,173.109777 79.5228533,178.163693 C74.0555676,183.99845 67.2673911,176.884816 63.7826869,172.835378 C60.380614,168.882827 55.1155324,162.115315 53.6432555,157.068496 C53.6202029,156.98947 53.598725,156.909558 53.5788145,156.828851 C53.2870248,155.843255 53.0996863,154.720587 53.0411622,153.457921 C52.820453,148.709968 52.9532428,142.11966 53.4303922,135.783028 C52.6163876,135.076609 52.1011201,134.034635 52.0993494,132.871626 C52.0956819,130.936905 53.5137264,129.331809 55.3686075,129.045441 Z"></path><path id="Fill-11-Copy--globalStyle1/animals/dogvscat/5" fill="#D8D5D5" d="M53.3572285,136.352042 C51.1145258,136.356044 49.5878183,134.963336 49.3372777,132.734417 C49.2334939,131.810903 51.4624983,127.437095 56.2561872,128.039655 C58.5729334,128.330867 60.238773,129.198692 60.6071566,131.187565 C60.9226034,132.890636 60.6903837,135.441671 57.865769,135.748743 C56.3552105,136.148205 54.8523636,136.349304 53.3572285,136.352042 Z" transform="rotate(42 55.024 132.167)"></path><path id="[color]color--globalStyle1/animals/dogvscat/5" fill="#233a48" fill-rule="nonzero" d="M132.028816,216.616639 C129.129784,221.137338 113.324664,219.839909 106.440922,217.54862 C95.7689149,213.996389 91.1916503,209.198543 86.0859746,205.003407 C71.9859746,193.41611 71.0847302,182.837358 67.6006762,168.036818 C66.3917573,162.901142 65.3098107,154.064912 72.3873422,151.776221 C84.6134872,147.822601 86.9535414,151.347595 88.2769071,157.573541 C89.6002727,163.799487 87.4028744,167.551021 91.9081673,172.63032 C103.27065,185.440462 110.017835,180.918619 123.815499,190.356384 C137.613163,199.79415 134.927847,212.095939 132.028816,216.616639 Z" transform="rotate(12 100.542 184.873)" opacity="1.00"></path><path id="Fill-29-Copy--globalStyle1/animals/dogvscat/5" fill="#E7E7E7" d="M72.3088099,175.635307 C72.5942153,171.401253 73.4742746,170.972488 74.6458962,167.438163 C76.7491395,161.091136 74.9666043,151.661334 73.216918,152.249902 C65.0307957,155.003591 66.9313663,171.87089 68.131169,177.515518 C69.8391815,185.551085 70.416001,196.056961 82.2052926,205.905064 C93.9945842,215.753167 99.6238716,220.710298 111.503069,218.185297 C111.503069,218.185297 121.815338,190.944353 106.841161,192.716887 C75.3517016,204.863643 71.4744856,188.014767 72.3088099,175.635307 Z" transform="rotate(12 91.005 185.53)"></path><path id="[color]color--globalStyle1/animals/dogvscat/5" fill="#233a48" fill-rule="nonzero" d="M72.1880722,144.505974 L77.0861803,135.159757 C77.3172614,134.717866 77.8637478,134.546784 78.3064505,134.778676 C78.4678019,134.863001 78.5991532,134.993541 78.6842884,135.153271 L84.9778019,146.93273 L72.1880722,144.505974 Z" opacity="1.00"></path><path id="shadow--globalStyle1/animals/dogvscat/5" fill="#000" fill-opacity=".08" d="M72.1880722,144.505974 L77.0861803,135.159757 C77.3172614,134.717866 77.8637478,134.546784 78.3064505,134.778676 C78.4678019,134.863001 78.5991532,134.993541 78.6842884,135.153271 L84.9778019,146.93273 L72.1880722,144.505974 Z"></path><path id="[color]color--globalStyle1/animals/dogvscat/5" fill="#233a48" fill-rule="nonzero" d="M73.8066127,160.973379 C70.2836397,160.557433 66.9820181,157.827433 65.4901262,153.657433 L64.9622884,151.756893 C64.5447208,151.156893 64.4279641,150.366352 64.7522884,149.712028 C65.040937,149.129055 65.2752614,149.125811 66.1744505,148.649866 L69.8385046,146.497163 C69.5425586,142.878514 74.1163424,141.282028 77.7122884,140.665001 C85.5893154,139.31419 92.8019374,142.700164 94.1640995,154.165029 C94.7730185,159.287731 90.3966127,163.362028 84.8385046,164.557163 C84.8117478,164.562838 84.7841803,164.568514 84.7574235,164.57419 C81.2603965,165.302298 77.6255316,164.25392 74.9158019,161.926082 L73.8066127,160.973379 Z" opacity="1.00"></path><path id="Stroke-35-Copy--globalStyle1/animals/dogvscat/5" fill="#000" fill-rule="nonzero" d="M74.7252522,147.462914 C75.3630689,146.607933 75.7522633,146.59858 76.468638,147.43324 C76.7551372,147.767045 77.2579929,147.805393 77.5917978,147.518894 C77.9256026,147.232395 77.9639514,146.729539 77.6774523,146.395735 C76.3016024,144.792709 74.7010992,144.831174 73.4484056,146.510385 C73.185372,146.862976 73.2579729,147.362039 73.6105643,147.625073 C73.9631558,147.888106 74.4622185,147.815505 74.7252522,147.462914 Z"></path><path id="Fill-37-Copy--globalStyle1/animals/dogvscat/5" fill="#E7E7E7" d="M75.6390451,156.219757 C73.3671532,159.125703 67.7125586,155.470568 66.1160722,153.874082 C65.6701262,153.428136 65.5006668,153.690838 65.5006668,153.690838 C67.020937,157.948406 70.2860722,160.577055 73.8066127,160.973541 L74.9587749,161.977325 C77.4033695,164.174622 77.3906662,164.463931 78.7649905,164.432309 C81.566668,161.977325 87.5190451,155.243541 84.1914776,153.053541 C80.5128289,150.634082 78.3690451,152.725974 75.6390451,156.219757 Z"></path><path id="Fill-39-Copy--globalStyle1/animals/dogvscat/5" fill="#000" d="M66.6619911,149.514109 C66.6676668,148.969244 65.7846938,149.43546 65.2925316,149.548974 C65.1368559,149.58546 65.0168559,149.504379 64.9146938,149.398974 C64.8587478,149.451676 64.7792884,149.583028 64.7436127,149.65519 C64.3576668,150.433568 64.5522614,151.312487 65.0484776,152.026002 C65.0484776,152.026002 65.4441532,152.031676 65.4782073,151.37492 C65.5292884,150.363028 66.6563154,150.058974 66.6619911,149.514109"></path><path id="[color]color--globalStyle1/animals/dogvscat/5" fill="#233a48" fill-rule="nonzero" d="M78.3882108,171.99146 C86.3504502,170.161838 88.0213242,179.888415 88.6492313,185.193065 C89.1882375,189.74254 90.0437786,197.125242 89.1283844,202.249671 C89.2234363,203.399825 89.212399,204.627717 89.0933861,205.901508 C88.5939516,211.246184 88.4660974,217.958628 86.8535449,224.843325 C86.1225698,227.962327 83.2835132,228.431406 81.119146,227.099396 C77.3487875,224.779041 79.9002484,217.441347 76.7550123,207.992465 C76.1359389,206.132786 75.4702265,204.107574 75.2219141,202.1818 C75.2077215,202.101617 75.195292,202.021367 75.1844674,201.941138 C74.7318893,198.583482 73.2424032,194.361424 73.2424032,187.982403 C73.2424032,182.13813 73.4507113,173.126035 78.3882108,171.99146 Z M86.5249911,134.734406 C86.6595857,134.856028 86.7544505,135.015757 86.7966127,135.191703 L89.9328289,148.172784 L78.1614776,142.614676 L85.2479641,134.796838 C85.5828289,134.427109 86.1552614,134.39873 86.5249911,134.734406 Z" opacity="1.00"></path><polygon id="shadow--globalStyle1/animals/dogvscat/5" fill="#000" fill-opacity=".08" points="83.2893262 139.810601 85.5198668 136.561682 85.8068938 141.694115"></polygon><path id="Fill-53-Copy--globalStyle1/animals/dogvscat/5" fill="#E7E7E7" d="M77.5469055,228.011392 C75.3042028,228.015435 73.7142028,226.902045 73.4636622,224.673126 C73.3598784,223.749613 73.7754721,220.981738 78.621023,220.178898 C78.621023,220.178898 90.2109595,227.334353 84.0877163,228.000029 L77.5469055,228.011392 Z"></path><path id="Combined-Shape-Copy-2--globalStyle1/animals/dogvscat/5" fill="#B9B6B4" fill-rule="nonzero" d="M77.7342388,222.902959 C77.8996585,222.843959 78.0815866,222.930229 78.1405866,223.095649 C78.1995865,223.261068 78.1133162,223.442997 77.9478965,223.501996 C75.9923785,224.199467 74.6243941,225.673154 74.4095606,227.609437 C74.3901934,227.783992 74.2329881,227.909797 74.0584327,227.89043 C73.8838772,227.871063 73.7580723,227.713857 73.7774395,227.539302 C74.0215035,225.339566 75.5652069,223.676583 77.7342388,222.902959 Z M76.5003041,221.59333 C76.6645632,221.531172 76.8481107,221.613941 76.9102688,221.778201 C76.972427,221.94246 76.8896578,222.126007 76.7253987,222.188165 C74.8277497,222.906265 73.5148011,224.356785 73.3045878,226.25149 C73.2852212,226.426045 73.1280163,226.551851 72.9534608,226.532484 C72.7789053,226.513118 72.6530999,226.355913 72.6724664,226.181357 C72.9113187,224.028523 74.394133,222.390338 76.5003041,221.59333 Z"></path><path id="Combined-Shape-Copy-5--globalStyle1/animals/dogvscat/5" fill="#B9B6B4" fill-rule="nonzero" d="M56.21422,127.692418 C56.3796398,127.633418 56.5615679,127.719688 56.6205678,127.885108 C56.6795678,128.050528 56.5932975,128.232456 56.4278777,128.291456 C54.4723598,128.988927 53.1043754,130.462613 52.8895419,132.398896 C52.8701747,132.573451 52.7129693,132.699256 52.5384139,132.679889 C52.3638585,132.660522 52.2380536,132.503317 52.2574208,132.328761 C52.5014848,130.129026 54.0451881,128.466042 56.21422,127.692418 Z M54.9802854,126.38279 C55.1445445,126.320631 55.3280919,126.403401 55.3902501,126.56766 C55.4524082,126.731919 55.369639,126.915466 55.20538,126.977624 C53.3077309,127.695724 51.9947824,129.146245 51.784569,131.040949 C51.7652025,131.215504 51.6079976,131.34131 51.4334421,131.321943 C51.2588866,131.302577 51.1330811,131.145372 51.1524477,130.970816 C51.3912999,128.817982 52.8741142,127.179797 54.9802854,126.38279 Z" transform="rotate(63 53.895 129.522)"></path><path id="[color]color--globalStyle1/animals/dogvscat/5" fill="#233a48" fill-rule="nonzero" d="M142.910854,138.56067 C145.522475,141.218508 135.634637,147.428508 140.772745,162.566345 C144.512205,173.585264 153.641935,183.336075 155.481664,204.975805 C156.87401,221.367484 146.688036,223.91315 139.802677,223.805275 C139.69178,224.02077 139.574906,224.234811 139.45236,224.447067 C137.2267,228.302433 133.555433,230.831651 129.508269,231.748144 C128.780793,232.217788 127.934183,232.683585 126.956899,233.138502 C122.226871,235.340288 116.229291,238.363161 115.806926,238.576272 L115.783287,238.588204 L115.740315,238.500097 C112.941605,239.290853 111.337444,237.214006 111.175636,234.765426 C111.04598,232.805628 113.267972,232.288732 118.186912,229.946462 L108.645603,224.435716 C101.31263,220.202472 98.7780354,210.74031 103.011279,203.408148 C107.244522,196.075986 116.706684,193.54058 124.039657,197.773013 L133.818035,203.418689 C139.271437,206.567224 142.071342,212.608771 141.406436,218.51491 C144.980761,218.527054 148.959264,217.076252 150.185448,211.050399 C151.619772,204.003643 147.715718,188.403643 137.826259,169.755805 C129.794367,154.612291 137.092475,132.64094 142.910854,138.56067 Z" transform="rotate(26 128.286 188.121)" opacity="1.00"></path><path id="Combined-Shape-Copy-3--globalStyle1/animals/dogvscat/5" fill="#E7E7E7" d="M96.4548501,221.119747 C96.4548501,221.119747 104.97197,227.322958 98.8487272,227.988634 L92.3079164,228.000015 C90.0652137,228.004039 88.4752137,227.171337 88.2246732,224.943229 C88.1208894,224.019715 90.268066,220.215031 96.4548501,221.119747 Z M163.156342,149.976763 C163.590511,151.274661 162.298101,152.265403 160.391527,153.782928 C159.195153,152.377595 157.464531,151.292651 155.720612,150.477267 C159.059505,147.558219 162.13258,146.917254 163.156342,149.976763 Z"></path><path id="Combined-Shape-Copy-4--globalStyle1/animals/dogvscat/5" fill="#B9B6B4" fill-rule="nonzero" d="M92.0349916,222.913344 C92.2004113,222.854344 92.3823394,222.940614 92.4413394,223.106034 C92.5003393,223.271453 92.4140691,223.453382 92.2486493,223.512381 C90.2932482,224.209811 88.9251476,225.683418 88.7103121,227.619023 C88.690938,227.793578 88.5337277,227.919377 88.359173,227.900003 C88.1846184,227.880629 88.0588196,227.723418 88.0781937,227.548864 C88.3222708,225.349801 89.8660927,223.686921 92.0349916,222.913344 Z M90.7792461,221.754202 C90.9435052,221.692044 91.1270527,221.774813 91.1892108,221.939072 C91.251369,222.103331 91.1685998,222.286879 91.0043407,222.349037 C89.1066917,223.067136 87.7937431,224.517657 87.5835298,226.412361 C87.5641632,226.586917 87.4069584,226.712722 87.2324029,226.693356 C87.0578474,226.673989 86.9320419,226.516784 86.9514084,226.342229 C87.1902607,224.189395 88.673075,222.551209 90.7792461,221.754202 Z"></path></g></g></svg></g>
</g></g><g transform="translate(575,588)">
<g><svg xmlns="http://www.w3.org/2000/svg" xmlns:xlink="http://www.w3.org/1999/xlink" width="223" height="228" viewBox="0 0 223 228"><defs><path id="path-1--globalStyle1/animals/dogvscat/3" d="M104.374875,34.1617016 L104.374867,34.1739961 C104.368077,39.4348353 100.248185,43.6942423 94.9873461,43.6877242 L3.77270735,43.5697588 C2.8480955,43.5685654 1.95682558,43.2242826 1.27151603,42.60359 C-0.256598756,41.2195592 -0.373401877,38.8587987 1.01062896,37.3306839 C4.50458923,33.4729864 9.78214461,31.7573101 14.8766426,32.8229927 L24.1877179,34.7707118 L45.0648791,31.874703 L55.8662199,38.9985199 C69.8045993,33.8337359 77.9019389,31.2664037 80.1582385,31.2965234 C86.8908932,31.3863985 92.5851624,32.8695277 97.2410461,35.745911 C105.597329,14.1158979 110.300681,4.57955699 111.351102,7.13688816 C114.256072,14.2092616 107.279845,21.1497519 104.374875,33.9450095 L104.374875,34.1617016 Z"></path></defs><g id="Symbols--globalStyle1/animals/dogvscat/3" fill="none" fill-rule="evenodd" stroke="none" stroke-width="1"><g id="globalStyle1/animals/dogvscat/3--globalStyle1/animals/dogvscat/3"><g id="Group-2--globalStyle1/animals/dogvscat/3" transform="translate(0 167)"><g id="Group--globalStyle1/animals/dogvscat/3"><g id="Group-21-Copy--globalStyle1/animals/dogvscat/3"><path id="Rectangle--globalStyle1/animals/dogvscat/3" fill="#E9E9E9" fill-rule="nonzero" d="M114.566358,14.8146815 C114.566358,14.8146815 114.566358,14.8146815 114.566358,14.8146815 C117.471328,21.8870549 117.471328,31.8208705 114.566358,44.6161281 L94.8815549,44.6161281 L94.8815549,18.6999475 C94.8815495,13.0523781 99.4598091,8.47411852 105.107378,8.47411852 C109.254364,8.47411852 112.990726,10.9786848 114.566358,14.8146815 Z"></path><path id="Rectangle-Copy-23--globalStyle1/animals/dogvscat/3" fill="#E9E9E9" fill-rule="nonzero" d="M62.1783177,-7.55521983 L72.1495518,-7.55521983 L72.1495518,-7.55521983 L61.5693075,72.6319368 L63.5170266,81.9430122 C64.5827091,87.0375102 62.8670329,92.3150655 59.0093354,95.8090258 C57.4812206,97.1930566 55.1204601,97.0762535 53.7364293,95.5481387 C53.1157367,94.8628292 52.7714539,93.9715593 52.7702605,93.0469474 L52.6527256,1.98267467 C52.6459356,-3.27816456 56.905184,-7.54842183 62.1660232,-7.55521189 C62.1701214,-7.55521718 62.1742195,-7.55521983 62.1783177,-7.55521983 Z" transform="scale(1 -1) rotate(90 107.011 0)"></path><path id="shadow--globalStyle1/animals/dogvscat/3" fill="#000" fill-opacity=".08" d="M105.37128,8.47411852 C109.419528,8.47411852 113.076473,10.8608395 114.714063,14.5429619 L114.830259,14.8146815 L114.830259,14.8146815 C117.735229,21.8870549 117.735229,31.8208705 114.830259,44.6161281 L114.830251,44.8451146 C114.823461,50.1059539 110.553204,54.3652023 105.292365,54.3584122 L105.292365,54.3584122 L14.2280921,54.2408773 C13.3034802,54.239684 12.4122103,53.8954011 11.7269008,53.2747085 C10.198786,51.8906777 10.0819828,49.5299172 11.4660137,48.0018024 C14.959974,44.1441049 20.2375293,42.4284287 25.3320273,43.4941112 L25.3320273,43.4941112 L34.6431027,45.4418303 L95.145,37.458757 L95.1454566,18.6999475 C95.1454512,13.0523781 99.7237108,8.47411852 105.37128,8.47411852 Z"></path><path id="[color]color--globalStyle1/animals/dogvscat/3" fill="#545454" fill-rule="nonzero" d="M141,12.9329572 C162.258473,1.85450401 180.938812,-0.804535093 197.041016,4.95583988 C221.194322,13.5964023 230.481723,44.7579805 216.203752,54.1678409 C207.266324,60.0580302 204.677104,55.1649051 208.436093,39.4884658 C208.872491,37.6684821 207.853163,35.8151375 206.08244,35.2090631 L141,12.9329572 L141,12.9329572 Z" opacity="1.00"></path><path id="shadow--globalStyle1/animals/dogvscat/3" fill="#000" fill-opacity=".08" d="M141,12.9329572 C162.258473,1.85450401 180.938812,-0.804535093 197.041016,4.95583988 C221.194322,13.5964023 230.481723,44.7579805 216.203752,54.1678409 C207.266324,60.0580302 204.677104,55.1649051 208.436093,39.4884658 C208.872491,37.6684821 207.853163,35.8151375 206.08244,35.2090631 L141,12.9329572 L141,12.9329572 Z"></path><g id="Group-20--globalStyle1/animals/dogvscat/3" transform="translate(3.81)"><g id="Group-17--globalStyle1/animals/dogvscat/3" transform="translate(29.526 3.582)"><path id="[color]color--globalStyle1/animals/dogvscat/3" fill="#545454" fill-rule="nonzero" d="M0.239944862,12.836363 L11.5212496,1.78893106 C12.0582118,1.26310064 12.9197755,1.27212472 13.4456059,1.80908691 C13.6350721,2.00256409 13.762505,2.24817001 13.8115994,2.51447922 L17.420856,22.0926364 L17.420856,22.0926364 L0.239944862,12.836363 Z" opacity="1.00"></path><path id="shadow--globalStyle1/animals/dogvscat/3" fill="#000" fill-opacity=".08" d="M0.239944862,12.836363 L11.5212496,1.78893106 C12.0582118,1.26310064 12.9197755,1.27212472 13.4456059,1.80908691 C13.6350721,2.00256409 13.762505,2.24817001 13.8115994,2.51447922 L17.420856,22.0926364 L17.420856,22.0926364 L0.239944862,12.836363 Z"></path></g><g id="Oval--globalStyle1/animals/dogvscat/3" transform="translate(0 .243)"><path id="[color]color--globalStyle1/animals/dogvscat/3" fill="#545454" fill-rule="nonzero" d="M144.799926,7.67989798 C158.264947,3.28165871 154.124754,1.70507812 174.167909,0.462551321 C194.211064,-0.779975483 206.337764,15.4943137 206,25.4321992 C205.662236,35.3700847 202.491368,46.6478412 190.806767,53.6208351 C183.017033,58.2694976 149.293973,58.4648747 89.6375859,54.2069662 C74.6628848,54.2069662 45.5230981,62.3364629 45.5230981,47.395941 L39.3467457,47.395941 L31.8091566,47.395941 L14.7093088,45.536901 C8.89767219,43.6555648 5.162344,40.9795353 3.50332427,37.5088125 L1.09480799,32.4701187 C0.514660137,31.2564307 1.03049675,29.8033128 2.24696131,29.2244891 C2.57504149,29.0683805 2.93393134,28.987367 3.29741191,28.987367 L19.4769137,28.2089552 C19.8565538,23.676401 27.2064278,15.8225252 31.8091566,15.924101 L42.451078,14.3910436 C56.1909332,14.3910436 53.1053162,24.7601645 67.7217409,15.924101 C73.0196065,12.7213837 75.7192533,8.6080484 92.9603149,3.7574732 C114.078666,-2.18393305 131.334906,12.0781372 144.799926,7.67989798 Z" opacity="1.00"></path><path id="shadow--globalStyle1/animals/dogvscat/3" fill="#000" fill-opacity=".04" d="M144.799926,7.67989798 C158.264947,3.28165871 154.124754,1.70507812 174.167909,0.462551321 C194.211064,-0.779975483 206.337764,15.4943137 206,25.4321992 C205.662236,35.3700847 202.491368,46.6478412 190.806767,53.6208351 C183.017033,58.2694976 149.293973,58.4648747 89.6375859,54.2069662 C74.6628848,54.2069662 45.5230981,62.3364629 45.5230981,47.395941 L39.3467457,47.395941 L31.8091566,47.395941 L14.7093088,45.536901 C8.89767219,43.6555648 5.162344,40.9795353 3.50332427,37.5088125 L1.09480799,32.4701187 C0.514660137,31.2564307 1.03049675,29.8033128 2.24696131,29.2244891 C2.57504149,29.0683805 2.93393134,28.987367 3.29741191,28.987367 L19.4769137,28.2089552 C19.8565538,23.676401 27.2064278,15.8225252 31.8091566,15.924101 L42.451078,14.3910436 C56.1909332,14.3910436 53.1053162,24.7601645 67.7217409,15.924101 C73.0196065,12.7213837 75.7192533,8.6080484 92.9603149,3.7574732 C114.078666,-2.18393305 131.334906,12.0781372 144.799926,7.67989798 Z"></path><path id="Path-48--globalStyle1/animals/dogvscat/3" fill="#E9E9E9" fill-rule="nonzero" d="M31.1302468,30.3426086 C32.0291963,29.1962152 32.6565343,29.1967672 33.6022667,30.3577519 C33.8870605,30.7073658 34.4013495,30.7599129 34.7509634,30.4751192 C35.1005773,30.1903254 35.1531244,29.6760364 34.8683307,29.3264225 C33.266369,27.3598481 31.3953392,27.3582017 29.8452472,29.3349706 C29.5669957,29.6898134 29.6290852,30.2030378 29.983928,30.4812894 C30.3387708,30.759541 30.8519953,30.6974515 31.1302468,30.3426086 Z" transform="rotate(8 32.362 29.255)"></path><path fill="#444343" d="M2.15688755,34.6190592 L6.42549128,28.8278188 C2.82925978,28.7293866 0.779047286,29.0700339 0.274853785,29.8497608 C-0.229339717,30.6294878 0.398004873,32.2192539 2.15688755,34.6190592 Z"></path></g><path id="[color]color--globalStyle1/animals/dogvscat/3" fill="#545454" fill-rule="nonzero" d="M34.9152433,18.2094974 L45.7104504,7.63808578 C46.2474126,7.11225536 47.1089762,7.12127944 47.6348067,7.65824163 C47.8838656,7.91257313 48.0233506,8.25437152 48.0233506,8.61034184 L48.0233506,25.674726 L48.0233506,25.674726 L34.9152433,18.2094974 Z" opacity="1.00"></path><path id="shadow--globalStyle1/animals/dogvscat/3" fill="#000" fill-opacity=".04" d="M34.9152433,18.2094974 L45.7104504,7.63808578 C46.2474126,7.11225536 47.1089762,7.12127944 47.6348067,7.65824163 C47.8838656,7.91257313 48.0233506,8.25437152 48.0233506,8.61034184 L48.0233506,25.674726 L48.0233506,25.674726 L34.9152433,18.2094974 Z"></path><polygon id="shadow--globalStyle1/animals/dogvscat/3" fill="#000" fill-opacity=".3" points="41.2028539 17.1881806 44.8198878 12.5373134 44.8198878 20.2021057"></polygon></g><g id="Path-47-Copy-2--globalStyle1/animals/dogvscat/3" transform="translate(0 15.06)"><g id="Path-47--globalStyle1/animals/dogvscat/3" transform="translate(1.149 .57)"><path id="[color]color--globalStyle1/animals/dogvscat/3" fill="#545454" fill-rule="nonzero" d="M104.374875,34.1618521 L104.374867,34.1741465 C104.368077,39.4349858 100.097819,43.6942342 94.8369801,43.6874522 L3.77270735,43.5699093 C2.8480955,43.5687159 1.95682558,43.2244331 1.27151603,42.6037405 C-0.256598756,41.2197096 -0.373401877,38.8589491 1.01062896,37.3308344 C4.50458923,33.4731368 9.78214461,31.7574606 14.8766426,32.8231432 L24.1877179,34.7708622 L84.6900704,26.7879171 L91.6662936,11.0223046 C91.6662936,5.37473518 96.2445532,0.796475602 101.892123,0.796475602 C106.039108,0.796475602 109.77547,3.30104185 111.351102,7.1370386 C114.256072,14.209412 107.279845,21.1499024 104.374875,33.94516 L104.374875,34.1618521 Z" opacity="1.00"></path><mask id="mask-2--globalStyle1/animals/dogvscat/3" fill="#fff"><use xlink:href="#path-1--globalStyle1/animals/dogvscat/3"></use></mask><use id="shape--globalStyle1/animals/dogvscat/3" fill="#E9E9E9" fill-rule="nonzero" xlink:href="#path-1--globalStyle1/animals/dogvscat/3"></use></g><path id="Path-50--globalStyle1/animals/dogvscat/3" fill="#D8D8D8" fill-rule="nonzero" d="M1.07813665,44.3821671 C2.15767425,39.7240626 5.67430115,36.7142144 10.0912326,35.9561415 C14.081349,35.2713225 17.7034419,36.6794404 18.5684207,39.2927192 C18.6628838,39.5781117 18.9708177,39.7328905 19.2562102,39.6384274 C19.5416027,39.5439643 19.6963815,39.2360305 19.6019184,38.950638 C18.5384111,35.7375639 14.3702926,34.1171741 9.90708311,34.8831895 C5.07703863,35.7121645 1.20114858,39.0295027 0.0176048705,44.1363839 C-0.050266292,44.4292417 0.132121386,44.7216702 0.42497915,44.7895414 C0.717836915,44.8574126 1.01026549,44.6750249 1.07813665,44.3821671 Z"></path></g><g id="Path-47-Copy--globalStyle1/animals/dogvscat/3" fill-rule="nonzero" transform="translate(108.065 10.264)"><g id="Path-47--globalStyle1/animals/dogvscat/3"><path id="[color]color--globalStyle1/animals/dogvscat/3" fill="#545454" d="M79.6566543,10.0055432 L94.584157,39.2434221 C94.584157,44.5126196 89.8126745,48.7841482 83.9267527,48.7841482 L7.84122067,48.7841482 C6.78470134,48.7841482 5.74464363,48.5497933 4.8140177,48.1020323 C1.70327964,46.6053329 0.536853117,43.1344949 2.20873115,40.3496986 L3.52750727,38.1530534 C7.45807641,31.6060242 12.5079068,39.3130994 20.8105541,39.3130994 L46.4735889,33.5189864 C39.3900806,24.7840626 40.7288173,11.9606896 49.4637411,4.87718125 C58.1986649,-2.20632713 71.0220379,-0.867590413 78.1055463,7.8673334 C78.4198215,8.25487723 78.7197463,8.6538413 79.0047135,9.0634177 C79.2222341,9.37599224 79.4395379,9.69004087 79.6566543,10.0055432 Z" opacity="1.00"></path><path id="shape--globalStyle1/animals/dogvscat/3" fill="#E9E9E9" d="M79.6566543,10.3275319 L94.584157,39.5654108 C94.584157,44.8346083 89.8126745,49.1061369 83.9267527,49.1061369 L7.84122067,49.1061369 C6.78470134,49.1061369 5.74464363,48.871782 4.8140177,48.4240209 C1.70327964,46.9273216 0.536853117,43.4564835 2.20873115,40.6716873 L3.52750727,38.4750421 C7.45807641,31.9280128 12.5079068,39.635088 20.8105541,39.635088 L25.9867565,43.7037653 C46.0375222,31.8592746 72.2312805,44.4862264 78.1055463,40.6716873 C79.7445231,39.607394 73.2648451,37.6642453 71.1133284,31.2744543 C68.9992758,24.995928 73.1351289,23.6482719 73.9128458,18.7721702 C75.0179432,11.843471 73.9479582,3.06245375 78.1055463,8.18932207 C78.4198215,8.57686589 78.7197463,8.97582996 79.0047135,9.38540636 C79.2222341,9.69798091 79.4395379,10.0120295 79.6566543,10.3275319 Z"></path><path id="Path-50--globalStyle1/animals/dogvscat/3" fill="#D8D8D8" d="M1.97156159,47.5714626 C3.01420831,43.6517752 6.43492321,41.100966 10.7467997,40.4562041 C14.6469789,39.873004 18.1920984,41.0737554 19.0218661,43.2578911 C19.1286286,43.5389141 19.4429909,43.6801801 19.7240139,43.5734176 C20.0050369,43.4666551 20.146303,43.1522928 20.0395404,42.8712698 C18.9878584,40.1030056 14.9327715,38.7295254 10.5858035,39.3795346 C5.87624008,40.0837633 2.08474332,42.9110626 0.919505836,47.2916131 C0.842227535,47.5821303 1.0150918,47.8802874 1.30560897,47.9575657 C1.59612615,48.034844 1.89428329,47.8619798 1.97156159,47.5714626 Z"></path></g></g></g><path id="[color]color--globalStyle1/animals/dogvscat/3" fill="#545454" fill-rule="nonzero" d="M210.81042,18.7900391 C198.991489,44.710707 201.307617,31.9268163 201.307617,37.6679688 C201.307617,39.4589671 196.634563,39.7435378 195.908203,41.6933594 C195.148985,43.7313836 189.662845,42.816017 187.605469,44.3076172 C181.97833,48.3872994 181.117579,46.1512504 179.886719,47.0309657 C177.988994,48.3872994 180.739223,49.4111956 179.886719,50.0634766 C174.189817,54.4223777 166.513899,49.6818938 161.904502,50.0634766 C160.587523,50.1725009 157.143796,50.6711981 158.197471,51.46875 C169.968506,60.3785316 192.283813,61.5590784 207.052833,55.9898199 C208.042114,55.6167713 208.042114,57.0596149 209.913664,54.7801133 C211.785214,52.5006116 211.484246,54.0001654 212.220934,53.5760593 C223.189752,47.261384 226.707351,35.9166159 210.81042,20.1894531 L210.81042,18.7900391 Z" opacity="1.00"></path><path id="shadow--globalStyle1/animals/dogvscat/3" fill="#000" fill-opacity=".08" d="M210.81042,18.7900391 C198.991489,44.710707 201.307617,31.9268163 201.307617,37.6679688 C201.307617,39.4589671 196.634563,39.7435378 195.908203,41.6933594 C195.148985,43.7313836 189.662845,42.816017 187.605469,44.3076172 C181.97833,48.3872994 181.117579,46.1512504 179.886719,47.0309657 C177.988994,48.3872994 180.739223,49.4111956 179.886719,50.0634766 C174.189817,54.4223777 166.513899,49.6818938 161.904502,50.0634766 C160.587523,50.1725009 157.143796,50.6711981 158.197471,51.46875 C169.968506,60.3785316 192.283813,61.5590784 207.052833,55.9898199 C208.042114,55.6167713 208.042114,57.0596149 209.913664,54.7801133 C211.785214,52.5006116 211.484246,54.0001654 212.220934,53.5760593 C223.189752,47.261384 226.707351,35.9166159 210.81042,20.1894531 L210.81042,18.7900391 Z"></path></g></g></g></g></svg></g></g><g><!----><!----></g></svg>