<svg id="illustration-builder" width="220" height="420" viewBox="280 145 220 420" version="1.1" xmlns="http://www.w3.org/2000/svg" xmlns:xlink="http://www.w3.org/1999/xlink" style="pointer-events: none;"><g transform="translate(219,126.5)">
<g transform="translate(30.25,179)">

<g><svg xmlns="http://www.w3.org/2000/svg" width="251" height="250" viewBox="0 0 251 250"><g id="Symbols--globalStyle1/music1/man/bottom/3" fill="none" fill-rule="evenodd" stroke="none" stroke-width="1"><g id="globalStyle1/music1/man/bottom/3--globalStyle1/music1/man/bottom/3"><path id="[skin]leg---globalStyle1/music1/man/bottom/3" fill="#c3786f" d="M105.400942,18.7874184 C118.320942,18.7654531 128.813942,29.2204531 128.835977,42.1404531 C128.838786,43.7932247 128.670147,45.4062634 128.34683,46.9627344 L110.501915,140.416957 C110.45038,140.821849 110.373923,141.218989 110.27413,141.606783 L110.267044,141.640536 C110.199883,141.891364 110.124394,142.138887 110.039516,142.382015 L110.087318,142.397369 L62.5721857,245.079842 C59.0134763,243.210529 59.2242819,242.096022 58.8376425,242.170359 C58.8376425,242.170359 66.7269307,213.190697 91.5005065,136.792447 L91.309207,137.378821 C91.3632606,137.089999 91.4300949,136.805668 91.5091015,136.52644 L91.5574676,136.365198 L82.0103419,43.7673531 L82.1021436,43.7714339 C82.0677541,43.2594545 82.0498323,42.7429528 82.0489041,42.2224531 C82.0259419,29.3024531 92.4819419,18.8104531 105.400942,18.7874184 Z" transform="rotate(8 93.837 131.934)" opacity="1.00"></path><path id="[clothes]shoes--globalStyle1/music1/man/bottom/3" fill="#294b67" d="M149.009266,249.770897 L175.768266,249.770897 L175.768266,247.886897 C175.768266,247.886897 166.530266,247.871897 149.009266,247.886897 L149.009266,249.770897 Z" opacity="1.00"></path><path id="[skin]leg---globalStyle1/music1/man/bottom/3" fill="#c3786f" d="M157.923986,18.0403448 C170.172986,18.0193781 180.120986,27.9313781 180.142019,40.1803781 C180.143752,41.1924777 180.077669,42.1888609 179.948057,43.1652277 L180.005812,43.1647781 L164.115203,137.399908 C164.042398,138.447886 163.790205,139.446532 163.389087,140.365314 L125.146345,237.438636 L118.423141,239.923126 L119.363812,233.229904 C119.363812,233.229904 144.757895,144.185379 146.160113,136.055309 C146.158726,136.053894 146.159013,136.050242 146.159301,136.04659 L146.157262,136.046957 L135.975549,43.1647781 C135.852536,42.2135119 135.786641,41.2435031 135.784949,40.2583781 C135.762986,28.0093781 145.674986,18.0613781 157.923986,18.0403448 Z" transform="rotate(-16 149.283 128.982)" opacity="1.00"></path><path id="shadow--globalStyle1/music1/man/bottom/3" fill="#000" fill-opacity=".04" d="M157.923986,18.0403448 C170.172986,18.0193781 180.120986,27.9313781 180.142019,40.1803781 C180.143752,41.1924777 180.077669,42.1888609 179.948057,43.1652277 L180.005812,43.1647781 L164.115203,137.399908 C164.042398,138.447886 163.790205,139.446532 163.389087,140.365314 L125.146345,237.438636 L118.423141,239.923126 L119.363812,233.229904 C119.363812,233.229904 144.757895,144.185379 146.160113,136.055309 C146.158726,136.053894 146.159013,136.050242 146.159301,136.04659 L146.157262,136.046957 L135.975549,43.1647781 C135.852536,42.2135119 135.786641,41.2435031 135.784949,40.2583781 C135.762986,28.0093781 145.674986,18.0613781 157.923986,18.0403448 Z" transform="rotate(-16 149.283 128.982)"></path><path id="Fill-15--globalStyle1/music1/man/bottom/3" fill="#E9E9E9" d="M149.009266,222.493597 L149.009266,247.959597 L175.768266,247.941597 C175.690266,246.302597 175.532266,245.373597 172.348266,245.310597 C167.571266,245.218597 156.052266,245.737597 156.049266,241.177597 C156.048266,240.204597 157.929266,234.446597 160.422266,223.829597 L149.009266,222.493597 Z"></path><path id="shadow--globalStyle1/music1/man/bottom/3" fill="#000" fill-opacity=".02" d="M149.009266,222.493597 L149.009266,247.959597 L175.768266,247.941597 C175.690266,246.302597 175.532266,245.373597 172.348266,245.310597 C167.571266,245.218597 156.052266,245.737597 156.049266,241.177597 C156.048266,240.204597 157.929266,234.446597 160.422266,223.829597 L149.009266,222.493597 Z"></path><path id="shape--globalStyle1/music1/man/bottom/3" fill="#E9E9E9" d="M46.2327756,217.861252 L46.2327756,243.327252 L72.9917756,243.309252 C72.9137756,241.670252 72.7557756,240.741252 69.5717756,240.678252 C64.7947756,240.586252 54.9451088,240.797164 54.9421088,236.237164 C54.9411088,235.264164 55.1527756,229.814252 57.6457756,219.197252 L46.2327756,217.861252 Z" transform="rotate(24 59.612 230.594)"></path><path id="[clothes]shoes--globalStyle1/music1/man/bottom/3" fill="#294b67" d="M40.7015775,243.962859 L67.4605775,243.962859 L67.4605775,242.078859 C67.4605775,242.078859 58.2225775,242.063859 40.7015775,242.078859 L40.7015775,243.962859 Z" transform="rotate(24 54.081 243.018)" opacity="1.00"></path><polygon id="[clothes]pants--globalStyle1/music1/man/bottom/3" fill="#294b67" points="173.057848 16.2685997 157.734255 136.007635 120.401627 132.7274 116.059769 12.984728" transform="rotate(-23 146.713 73.562)" opacity="1.00"></polygon><polygon id="shadow--globalStyle1/music1/man/bottom/3" fill="#000" fill-opacity=".08" points="173.057848 16.2685997 157.734255 136.007635 120.401627 132.7274 116.059769 12.984728" transform="rotate(-23 146.713 73.562)"></polygon><polygon id="[clothes]pants--globalStyle1/music1/man/bottom/3" fill="#294b67" points="140.160815 18.7963281 125.312632 139.28698 89.9149502 138.360179 90.1852101 17.5928041" opacity="1.00"></polygon></g></g></svg></g>
</g>
<g transform="translate(83.75,15)">

<g><svg xmlns="http://www.w3.org/2000/svg" width="120" height="150" viewBox="0 0 120 150"><g id="Symbols--globalStyle1/music1/man/head/5" fill="none" fill-rule="evenodd" stroke="none" stroke-width="1"><g id="globalStyle1/music1/man/head/5--globalStyle1/music1/man/head/5"><polygon id="[skin]neck--globalStyle1/music1/man/head/5" fill="#c3786f" points="69.0765532 92.0485 88.5735532 92.0485 85.8989543 40.509 74.5815532 37.4535" opacity="1.00"></polygon><polygon id="shadow--globalStyle1/music1/man/head/5" fill="#000" fill-opacity=".04" points="69.0765532 92.0485 88.5735532 92.0485 85.8989543 40.509 74.5815532 37.4535"></polygon><path id="[skin]face--globalStyle1/music1/man/head/5" fill="#c3786f" d="M85.7290118,50.1722562 C91.2372406,50.4117241 93.3515741,42.3634794 92.9533352,31.0442262 C92.5550963,19.7249731 87.7669582,10.3547783 82.2587294,10.1153103 C76.7505006,9.87584241 72.6080353,18.857783 73.0062742,30.1770361 C73.4045131,41.4962892 80.220783,49.9327882 85.7290118,50.1722562 Z" transform="rotate(8 82.99 30.144)" opacity="1.00"></path><path id="[hair]hair--globalStyle1/music1/man/head/5" fill="#2a4862" d="M73.1826731,31.4808543 L75.7935539,27.4671609 C76.4129057,21.476275 77.1351275,18.3259871 77.9602192,18.0162973 C81.8874589,16.5422477 91.6144251,18.8871472 92.1490318,19.9764738 C92.4283264,20.5455707 102.094114,12.9859766 98.6726795,9.38685301 C97.0135463,7.64155455 86.8447053,7.89113216 81.4279763,8.41586026 C70.3699687,9.487069 67.6215343,17.1754003 73.1826731,31.4808543 Z" transform="rotate(-2 84.898 19.754)" opacity="1.00"></path><path id="smile--globalStyle1/music1/man/head/5" fill="#FFF" fill-rule="nonzero" d="M89.2777577,41.8888747 C89.9340077,41.8888747 91.2777577,41.4523947 91.2777577,39.8888747 C91.2777577,39.8888747 87.2777577,39.8888747 87.2777577,39.8888747 C87.2777577,41.336656 88.6215077,41.8888747 89.2777577,41.8888747 Z" transform="rotate(-2 89.278 40.889)"></path></g></g></svg></g>
</g>
<g transform="translate(82.75000000000728,6)">

<g><svg xmlns="http://www.w3.org/2000/svg" width="204" height="273.592" viewBox="0 0 204 273.592"><g id="Symbols--globalStyle1/music1/man/top/4" fill="none" fill-rule="evenodd" stroke="none" stroke-width="1"><g id="globalStyle1/music1/man/top/4--globalStyle1/music1/man/top/4"><path id="[skin]hand--globalStyle1/music1/man/top/4" fill="#c3786f" d="M110.530734,92 C110.960732,97.0104749 119.022973,143.350535 121.295324,157.207689 C125.248762,161.197312 134.236446,172.769135 158,201.880982 L158,201.880982 L157.831378,202.067907 C157.87743,202.112328 157.922601,202.158131 157.966839,202.205317 L158.038,202.286 L166.481187,204.376456 L173.280787,205.486216 L179.174412,209.983788 C179.632718,210.353498 179.414221,210.624142 179.319474,210.610969 C177.308048,210.342212 175.823946,209.703986 174.062975,208.352217 C171.755003,208.714193 170.207307,207.370556 170.389959,209.514115 C170.410481,209.765805 173.633816,211.697656 177.197939,212.784314 C177.703507,212.938124 180.105019,213.865622 180.410388,213.961051 C182.16217,214.513974 182.466663,214.506307 183.760304,214.686556 C184.158209,214.742472 184.618261,214.988356 185.139601,215.426422 C185.213932,215.489743 185.272926,215.564718 185.30672,215.643795 C185.400532,215.858673 185.292052,216.039615 185.063885,216.048335 C184.551691,216.066488 183.992825,216.065457 183.388919,216.042298 C182.504911,216.010828 179.826888,215.551927 177.58613,214.916617 C176.069165,214.486331 174.182363,213.970851 173.946857,213.97947 C173.581162,213.991485 176.532309,215.086008 178.815329,216.163161 C181.097492,217.242528 182.879661,216.747227 185.153475,216.986229 C185.466792,217.017989 186.001222,217.2471 186.757706,217.669867 C186.798343,217.691934 187.126625,217.996073 186.946305,218.174541 C186.764435,218.35447 184.018565,218.653305 182.488399,218.618859 C179.937918,218.560705 179.458406,218.334576 178.341142,217.888293 C176.950156,217.332186 174.437801,216.443208 173.740149,216.230387 C173.042498,216.017565 176.639413,218.046527 179.499915,218.948463 C179.944495,219.089566 180.891456,219.256878 181.325875,219.342962 C182.629132,219.601214 184.45437,219.427626 184.963424,219.888513 C185.036898,219.954046 185.100295,220.029082 185.150317,220.106899 C185.380753,220.466793 185.279995,220.825829 184.925022,220.909187 C184.003847,221.12342 182.702213,221.152937 181.018569,220.9992 C180.62322,220.963343 179.073573,220.777339 178.5401,220.583839 C176.284199,219.771816 173.64311,218.29222 173.354714,218.314201 C173.067093,218.33545 174.689664,219.03269 176.617377,220.001119 C177.05673,220.222986 178.912631,220.937534 179.251151,221.097199 C179.699195,221.308062 180.037235,221.383917 180.836001,221.667103 C182.429905,222.232682 182.387092,222.923276 181.418582,222.998175 C180.449296,223.073805 173.367356,220.780985 170.366577,219.363917 C168.723423,218.587782 165.344947,217.345719 161.511935,214.807722 L152,208.058409 L152.131693,207.896321 C152.098422,207.863381 152.065627,207.829706 152.033328,207.795295 C151.921955,207.6765 151.819671,207.552332 151.726434,207.423616 C128.558887,189.751455 113.391445,178.593884 107.185057,170.806558 C106.853819,170.474344 106.562626,170.129232 106.320689,169.778284 C106.121159,169.488844 105.918188,169.148141 105.712134,168.759507 C104.835662,167.376194 104.293488,166.109439 104.090699,164.933871 C98.503139,149.39106 91.5015769,108.215317 89,96.4853484 C89,96.4853484 102.692529,92.7341224 110.530734,92 Z" opacity="1.00"></path><path id="shadow--globalStyle1/music1/man/top/4" fill="#000" fill-opacity=".04" d="M110.530734,92 C110.960732,97.0104749 119.022973,143.350535 121.295324,157.207689 C125.248762,161.197312 134.236446,172.769135 158,201.880982 L158,201.880982 L157.831378,202.067907 C157.87743,202.112328 157.922601,202.158131 157.966839,202.205317 L158.038,202.286 L166.481187,204.376456 L173.280787,205.486216 L179.174412,209.983788 C179.632718,210.353498 179.414221,210.624142 179.319474,210.610969 C177.308048,210.342212 175.823946,209.703986 174.062975,208.352217 C171.755003,208.714193 170.207307,207.370556 170.389959,209.514115 C170.410481,209.765805 173.633816,211.697656 177.197939,212.784314 C177.703507,212.938124 180.105019,213.865622 180.410388,213.961051 C182.16217,214.513974 182.466663,214.506307 183.760304,214.686556 C184.158209,214.742472 184.618261,214.988356 185.139601,215.426422 C185.213932,215.489743 185.272926,215.564718 185.30672,215.643795 C185.400532,215.858673 185.292052,216.039615 185.063885,216.048335 C184.551691,216.066488 183.992825,216.065457 183.388919,216.042298 C182.504911,216.010828 179.826888,215.551927 177.58613,214.916617 C176.069165,214.486331 174.182363,213.970851 173.946857,213.97947 C173.581162,213.991485 176.532309,215.086008 178.815329,216.163161 C181.097492,217.242528 182.879661,216.747227 185.153475,216.986229 C185.466792,217.017989 186.001222,217.2471 186.757706,217.669867 C186.798343,217.691934 187.126625,217.996073 186.946305,218.174541 C186.764435,218.35447 184.018565,218.653305 182.488399,218.618859 C179.937918,218.560705 179.458406,218.334576 178.341142,217.888293 C176.950156,217.332186 174.437801,216.443208 173.740149,216.230387 C173.042498,216.017565 176.639413,218.046527 179.499915,218.948463 C179.944495,219.089566 180.891456,219.256878 181.325875,219.342962 C182.629132,219.601214 184.45437,219.427626 184.963424,219.888513 C185.036898,219.954046 185.100295,220.029082 185.150317,220.106899 C185.380753,220.466793 185.279995,220.825829 184.925022,220.909187 C184.003847,221.12342 182.702213,221.152937 181.018569,220.9992 C180.62322,220.963343 179.073573,220.777339 178.5401,220.583839 C176.284199,219.771816 173.64311,218.29222 173.354714,218.314201 C173.067093,218.33545 174.689664,219.03269 176.617377,220.001119 C177.05673,220.222986 178.912631,220.937534 179.251151,221.097199 C179.699195,221.308062 180.037235,221.383917 180.836001,221.667103 C182.429905,222.232682 182.387092,222.923276 181.418582,222.998175 C180.449296,223.073805 173.367356,220.780985 170.366577,219.363917 C168.723423,218.587782 165.344947,217.345719 161.511935,214.807722 L152,208.058409 L152.131693,207.896321 C152.098422,207.863381 152.065627,207.829706 152.033328,207.795295 C151.921955,207.6765 151.819671,207.552332 151.726434,207.423616 C128.558887,189.751455 113.391445,178.593884 107.185057,170.806558 C106.853819,170.474344 106.562626,170.129232 106.320689,169.778284 C106.121159,169.488844 105.918188,169.148141 105.712134,168.759507 C104.835662,167.376194 104.293488,166.109439 104.090699,164.933871 C98.503139,149.39106 91.5015769,108.215317 89,96.4853484 C89,96.4853484 102.692529,92.7341224 110.530734,92 Z"></path><path id="[clothes]tshirt--globalStyle1/music1/man/top/4" fill="#FECD70" d="M98.9184407,86.2227109 L98.9184407,86.2227109 C107.537771,86.2073281 114.513284,93.5982407 114.444313,102.675109 L114.260389,127.165485 L83.4448198,127.222711 L83.4448198,102.546351 C83.4448198,93.5421155 90.3680817,86.2392424 98.9184407,86.2227109" transform="rotate(-8 98.945 106.723)" opacity="1.00"></path><path id="shadow--globalStyle1/music1/man/top/4" fill="#000" fill-opacity=".04" d="M98.9184407,86.2227109 L98.9184407,86.2227109 C107.537771,86.2073281 114.513284,93.5982407 114.444313,102.675109 L114.260389,127.165485 L83.4448198,127.222711 L83.4448198,102.546351 C83.4448198,93.5421155 90.3680817,86.2392424 98.9184407,86.2227109" transform="rotate(-8 98.945 106.723)"></path><path id="[clothes]tshirt--globalStyle1/music1/man/top/4" fill="#FECD70" d="M87.7875497,85.946293 C87.7875497,85.946293 75.792292,76 70.3357812,76 C40.6456072,76 32.2273591,98.5541551 33.0544636,130.749536 C33.1557631,134.678339 33.5922904,150.753275 34.8559223,180.005846 C35.1942832,187.840698 35.5650182,212.605436 35.9451521,220.401282 C37.3706542,249.588842 112.86587,237.050479 111.379798,207.805492 C111.072766,201.76168 112.210035,168.131673 113.666867,131.428896 C114.051178,121.737993 114.688216,101.259677 111.668031,93.0802687 C107.612921,82.0956564 94.3687463,78.5977575 88.4672721,77.7320339 C88.0141238,83.2082066 87.7875497,85.946293 87.7875497,85.946293 Z" opacity="1.00"></path><polygon id="Path-109--globalStyle1/music1/man/top/4" fill="#FFF" points="80.7426162 162.733114 93.8342067 126.733687 101.492806 135.332924 110.209261 104.7 99.6993036 125.862606 92.5194822 117.704107"></polygon><path id="Path-97--globalStyle1/music1/man/top/4" fill="#6D6D6D" d="M151.661967,99.4956278 L176.496705,120.581268 C177.817832,120.077762 178.662668,119.183377 179.031212,117.898111 C179.399756,116.612845 171.622696,108.832688 155.700033,94.5576407 L151.661967,99.4956278 Z"></path><path id="[skin]hand--globalStyle1/music1/man/top/4" fill="#c3786f" d="M62.916697,61.348155 C70.4216864,61.218356 76.5422701,67.6845122 76.4534477,75.6368676 C76.2752399,91.5256465 76.3451315,116.730816 76.2544817,129.173326 C84.8985371,130.293887 100.344894,132.631608 127.454402,136.642858 L127.022402,136.578234 L137.186514,134.388846 L143.753823,131.516661 L145.846013,131.381139 L146.873482,131.64434 L146.873482,133.325754 C146.873482,133.325754 142.263637,134.907611 143.610164,136.520267 C143.777767,136.719261 147.719293,136.539822 151.457871,135.457432 C151.990325,135.303298 154.345891,136.44205 152.024529,137.162109 C150.449971,137.648667 149.535564,138.142126 149.333757,138.280156 C149.024774,138.495254 148.909618,138.651689 151.529701,138.280156 C154.150924,137.909775 153.25932,139.642057 152.024529,139.892813 C150.487596,140.203381 151.211597,140.075703 150.479615,140.28735 C149.950582,140.441484 150.201417,140.684188 152.554703,140.28735 C153.189771,140.181527 153.849922,141.482464 152.942356,142.117405 C152.561544,142.384264 151.962961,142.134658 151.371219,142.254285 C149.371382,142.661475 150.307451,142.518843 152.554703,142.254285 C152.872807,142.216326 153.642413,143.442497 152.554703,144.175209 C151.892271,144.622658 150.693965,144.623809 149.390764,144.807849 C147.503803,145.075858 143.833634,145.923596 139.005065,145.933948 L126.114805,144.890096 C79.2060016,152.203568 61.7978554,152.267647 58.5675393,144.45947 C58.2156198,143.522394 57.9523711,142.614013 57.7704787,141.737724 C57.46293,141.202825 57.2468621,140.672965 57.1411937,140.170794 C55.4862369,132.309298 50.7378073,97.6789103 49.4810202,76.3853754 C49.0062794,68.3356708 54.9410506,61.4995872 62.5522186,61.354645 C62.6737114,61.3524816 62.7952042,61.3503183 62.916697,61.348155 Z" transform="rotate(-39 101.42 105.846)" opacity="1.00"></path><circle id="Oval--globalStyle1/music1/man/top/4" cx="150.735" cy="93.758" r="7.675" fill="#D8D8D8" transform="rotate(-74 150.735 93.758)"></circle><path id="Path-98--globalStyle1/music1/man/top/4" fill="#979797" fill-rule="nonzero" d="M144.985148,99.2732944 C148.06636,98.0574213 150.434712,96.531951 152.097517,94.7039754 C153.638119,93.0103419 154.597725,90.6714229 154.965244,87.669671 L155.023952,87.1330658 L156.385345,87.2647161 C156.04338,90.8009721 154.955749,93.5944519 153.109288,95.6243258 C151.407837,97.4947858 149.066319,99.051381 146.09076,100.299955 L145.487197,100.545565 L144.985148,99.2732944 Z"></path><path id="[clothes]tshirt--globalStyle1/music1/man/top/4" fill="#FECD70" d="M55.7694067,89.4509907 L55.7694067,89.4509907 C64.3887371,89.4356079 71.36425,96.8265204 71.2952786,105.903389 L71.111355,130.393765 L40.2957857,130.450991 L40.2957857,105.774631 C40.2957857,96.7703953 47.2190476,89.4675222 55.7694067,89.4509907" transform="rotate(-39 55.796 109.951)" opacity="1.00"></path><path id="shadow--globalStyle1/music1/man/top/4" fill="#000" fill-opacity=".04" d="M55.7694067,89.4509907 L55.7694067,89.4509907 C64.3887371,89.4356079 71.36425,96.8265204 71.2952786,105.903389 L71.111355,130.393765 L40.2957857,130.450991 L40.2957857,105.774631 C40.2957857,96.7703953 47.2190476,89.4675222 55.7694067,89.4509907" transform="rotate(-39 55.796 109.951)"></path></g></g></svg></g>
</g></g><!----></svg>